<?xml version="1.0" encoding="utf-8" standalone="no"?>
<!DOCTYPE svg PUBLIC "-//W3C//DTD SVG 1.1//EN"
  "http://www.w3.org/Graphics/SVG/1.1/DTD/svg11.dtd">
<svg xmlns:xlink="http://www.w3.org/1999/xlink" width="338.245781pt" height="230.106pt" viewBox="0 0 338.245781 230.106" xmlns="http://www.w3.org/2000/svg" version="1.1">
 <metadata>
  <rdf:RDF xmlns:dc="http://purl.org/dc/elements/1.1/" xmlns:cc="http://creativecommons.org/ns#" xmlns:rdf="http://www.w3.org/1999/02/22-rdf-syntax-ns#">
   <cc:Work>
    <dc:type rdf:resource="http://purl.org/dc/dcmitype/StillImage"/>
    <dc:date>2026-06-20T06:45:06.744049</dc:date>
    <dc:format>image/svg+xml</dc:format>
    <dc:creator>
     <cc:Agent>
      <dc:title>Matplotlib v3.9.4, https://matplotlib.org/</dc:title>
     </cc:Agent>
    </dc:creator>
   </cc:Work>
  </rdf:RDF>
 </metadata>
 <defs>
  <style type="text/css">*{stroke-linejoin: round; stroke-linecap: butt}</style>
 </defs>
 <g id="figure_1">
  <g id="patch_1">
   <path d="M 0 230.106 
L 338.245781 230.106 
L 338.245781 0 
L 0 0 
z
" style="fill: #ffffff"/>
  </g>
  <g id="axes_1">
   <g id="patch_2">
    <path d="M 40.885781 208.63975 
L 331.045781 208.63975 
L 331.045781 20.14375 
L 40.885781 20.14375 
z
" style="fill: #ffffff"/>
   </g>
   <g id="PolyCollection_1">
    <defs>
     <path id="m9930570b0c" d="M 74.032408 -88.805118 
L 71.800453 -88.805118 
L 71.593651 -89.439504 
L 71.361682 -90.07389 
L 71.103693 -90.708276 
L 70.819351 -91.342661 
L 70.509028 -91.977047 
L 70.173988 -92.611433 
L 69.816558 -93.245818 
L 69.440267 -93.880204 
L 69.049901 -94.51459 
L 68.651443 -95.148976 
L 68.251851 -95.783361 
L 67.858635 -96.417747 
L 67.479236 -97.052133 
L 67.120224 -97.686518 
L 66.786402 -98.320904 
L 66.47993 -98.95529 
L 66.199614 -99.589675 
L 65.940522 -100.224061 
L 65.69404 -100.858447 
L 65.44845 -101.492833 
L 65.190005 -102.127218 
L 64.904408 -102.761604 
L 64.578511 -103.39599 
L 64.202002 -104.030375 
L 63.768829 -104.664761 
L 63.278137 -105.299147 
L 62.734577 -105.933533 
L 62.147918 -106.567918 
L 61.532029 -107.202304 
L 60.903375 -107.83669 
L 60.279261 -108.471075 
L 59.676073 -109.105461 
L 59.107764 -109.739847 
L 58.584775 -110.374232 
L 58.113487 -111.008618 
L 57.696206 -111.643004 
L 57.331604 -112.27739 
L 57.015452 -112.911775 
L 56.741485 -113.546161 
L 56.502226 -114.180547 
L 56.28969 -114.814932 
L 56.09589 -115.449318 
L 55.913227 -116.083704 
L 55.734807 -116.71809 
L 55.554798 -117.352475 
L 55.368895 -117.986861 
L 55.174909 -118.621247 
L 54.973412 -119.255632 
L 54.768334 -119.890018 
L 54.567335 -120.524404 
L 54.381818 -121.15879 
L 54.226452 -121.793175 
L 54.118194 -122.427561 
L 54.074872 -123.061947 
L 54.113484 -123.696332 
L 54.24843 -124.330718 
L 54.489925 -124.965104 
L 54.84282 -125.599489 
L 55.30598 -126.233875 
L 55.872307 -126.868261 
L 56.529394 -127.502647 
L 57.260688 -128.137032 
L 58.047005 -128.771418 
L 58.868192 -129.405804 
L 59.704709 -130.040189 
L 60.538976 -130.674575 
L 61.356327 -131.308961 
L 62.145531 -131.943347 
L 62.898863 -132.577732 
L 63.611795 -133.212118 
L 64.282422 -133.846504 
L 64.910733 -134.480889 
L 65.497885 -135.115275 
L 66.045575 -135.749661 
L 66.555592 -136.384046 
L 67.029587 -137.018432 
L 67.469034 -137.652818 
L 67.875352 -138.287204 
L 68.2501 -138.921589 
L 68.595172 -139.555975 
L 68.912937 -140.190361 
L 69.206265 -140.824746 
L 69.478437 -141.459132 
L 69.732944 -142.093518 
L 69.973217 -142.727904 
L 70.202322 -143.362289 
L 70.422697 -143.996675 
L 70.635949 -144.631061 
L 70.842764 -145.265446 
L 71.042943 -145.899832 
L 71.23555 -146.534218 
L 71.419154 -147.168603 
L 71.592129 -147.802989 
L 71.752948 -148.437375 
L 71.900444 -149.071761 
L 72.033976 -149.706146 
L 72.153502 -150.340532 
L 72.259546 -150.974918 
L 72.353076 -151.609303 
L 73.479786 -151.609303 
L 73.479786 -151.609303 
L 73.573315 -150.974918 
L 73.679359 -150.340532 
L 73.798886 -149.706146 
L 73.932417 -149.071761 
L 74.079913 -148.437375 
L 74.240733 -147.802989 
L 74.413707 -147.168603 
L 74.597312 -146.534218 
L 74.789918 -145.899832 
L 74.990097 -145.265446 
L 75.196912 -144.631061 
L 75.410164 -143.996675 
L 75.630539 -143.362289 
L 75.859644 -142.727904 
L 76.099917 -142.093518 
L 76.354424 -141.459132 
L 76.626596 -140.824746 
L 76.919924 -140.190361 
L 77.237689 -139.555975 
L 77.582762 -138.921589 
L 77.957509 -138.287204 
L 78.363828 -137.652818 
L 78.803275 -137.018432 
L 79.277269 -136.384046 
L 79.787286 -135.749661 
L 80.334976 -135.115275 
L 80.922129 -134.480889 
L 81.55044 -133.846504 
L 82.221066 -133.212118 
L 82.933998 -132.577732 
L 83.68733 -131.943347 
L 84.476534 -131.308961 
L 85.293885 -130.674575 
L 86.128152 -130.040189 
L 86.964669 -129.405804 
L 87.785856 -128.771418 
L 88.572173 -128.137032 
L 89.303467 -127.502647 
L 89.960554 -126.868261 
L 90.526882 -126.233875 
L 90.990041 -125.599489 
L 91.342936 -124.965104 
L 91.584431 -124.330718 
L 91.719377 -123.696332 
L 91.757989 -123.061947 
L 91.714668 -122.427561 
L 91.606409 -121.793175 
L 91.451043 -121.15879 
L 91.265526 -120.524404 
L 91.064528 -119.890018 
L 90.859449 -119.255632 
L 90.657953 -118.621247 
L 90.463966 -117.986861 
L 90.278063 -117.352475 
L 90.098054 -116.71809 
L 89.919634 -116.083704 
L 89.736971 -115.449318 
L 89.543172 -114.814932 
L 89.330635 -114.180547 
L 89.091377 -113.546161 
L 88.817409 -112.911775 
L 88.501257 -112.27739 
L 88.136655 -111.643004 
L 87.719375 -111.008618 
L 87.248086 -110.374232 
L 86.725097 -109.739847 
L 86.156788 -109.105461 
L 85.5536 -108.471075 
L 84.929486 -107.83669 
L 84.300833 -107.202304 
L 83.684943 -106.567918 
L 83.098284 -105.933533 
L 82.554724 -105.299147 
L 82.064032 -104.664761 
L 81.630859 -104.030375 
L 81.25435 -103.39599 
L 80.928453 -102.761604 
L 80.642856 -102.127218 
L 80.384411 -101.492833 
L 80.138821 -100.858447 
L 79.892339 -100.224061 
L 79.633247 -99.589675 
L 79.352931 -98.95529 
L 79.046459 -98.320904 
L 78.712637 -97.686518 
L 78.353625 -97.052133 
L 77.974226 -96.417747 
L 77.58101 -95.783361 
L 77.181418 -95.148976 
L 76.78296 -94.51459 
L 76.392594 -93.880204 
L 76.016303 -93.245818 
L 75.658873 -92.611433 
L 75.323833 -91.977047 
L 75.01351 -91.342661 
L 74.729168 -90.708276 
L 74.471179 -90.07389 
L 74.23921 -89.439504 
L 74.032408 -88.805118 
z
" style="stroke: #ffffff; stroke-opacity: 0.65"/>
    </defs>
    <g clip-path="url(#p940c20122f)">
     <use xlink:href="#m9930570b0c" x="0" y="230.106" style="fill: #2f6b9a; fill-opacity: 0.65; stroke: #ffffff; stroke-opacity: 0.65"/>
    </g>
   </g>
   <g id="PolyCollection_2">
    <defs>
     <path id="m6e3e950d41" d="M 149.19545 -71.046906 
L 147.369879 -71.046906 
L 147.270789 -72.150232 
L 147.180978 -73.253558 
L 147.10093 -74.356884 
L 147.028957 -75.46021 
L 146.960988 -76.563536 
L 146.890616 -77.666861 
L 146.809471 -78.770187 
L 146.707912 -79.873513 
L 146.576027 -80.976839 
L 146.404853 -82.080165 
L 146.187658 -83.183491 
L 145.921124 -84.286816 
L 145.606195 -85.390142 
L 145.248418 -86.493468 
L 144.857623 -87.596794 
L 144.446889 -88.70012 
L 144.030864 -89.803445 
L 143.623612 -90.906771 
L 143.236296 -92.010097 
L 142.875045 -93.113423 
L 142.539424 -94.216749 
L 142.221808 -95.320075 
L 141.907917 -96.4234 
L 141.578499 -97.526726 
L 141.212009 -98.630052 
L 140.787871 -99.733378 
L 140.289771 -100.836704 
L 139.7084 -101.94003 
L 139.043105 -103.043355 
L 138.302157 -104.146681 
L 137.501605 -105.250007 
L 136.662996 -106.353333 
L 135.810471 -107.456659 
L 134.967811 -108.559985 
L 134.155971 -109.66331 
L 133.39145 -110.766636 
L 132.685618 -111.869962 
L 132.044956 -112.973288 
L 131.471999 -114.076614 
L 130.966778 -115.179939 
L 130.5285 -116.283265 
L 130.157252 -117.386591 
L 129.85547 -118.489917 
L 129.628895 -119.593243 
L 129.486771 -120.696569 
L 129.441106 -121.799894 
L 129.504993 -122.90322 
L 129.690232 -124.006546 
L 130.00468 -125.109872 
L 130.449923 -126.213198 
L 131.019795 -127.316524 
L 131.70013 -128.419849 
L 132.469826 -129.523175 
L 133.30301 -130.626501 
L 134.171831 -131.729827 
L 135.049349 -132.833153 
L 135.912 -133.936479 
L 136.741308 -135.039804 
L 137.524721 -136.14313 
L 138.255655 -137.246456 
L 138.932911 -138.349782 
L 139.559718 -139.453108 
L 140.142568 -140.556433 
L 140.689984 -141.659759 
L 141.211284 -142.763085 
L 141.71539 -143.866411 
L 142.209753 -144.969737 
L 142.699465 -146.073063 
L 143.186671 -147.176388 
L 143.670371 -148.279714 
L 144.146665 -149.38304 
L 144.609398 -150.486366 
L 145.05113 -151.589692 
L 145.464237 -152.693018 
L 145.84198 -153.796343 
L 146.179362 -154.899669 
L 146.473664 -156.002995 
L 146.72462 -157.106321 
L 146.934258 -158.209647 
L 147.106479 -159.312972 
L 147.24649 -160.416298 
L 147.360169 -161.519624 
L 147.453467 -162.62295 
L 147.531878 -163.726276 
L 147.600035 -164.829602 
L 147.661437 -165.932927 
L 147.718319 -167.036253 
L 147.771681 -168.139579 
L 147.821467 -169.242905 
L 147.866868 -170.346231 
L 147.906734 -171.449557 
L 147.940006 -172.552882 
L 147.966112 -173.656208 
L 147.985242 -174.759534 
L 147.998441 -175.86286 
L 148.007513 -176.966186 
L 148.014731 -178.069512 
L 148.022447 -179.172837 
L 148.032683 -180.276163 
L 148.532646 -180.276163 
L 148.532646 -180.276163 
L 148.542881 -179.172837 
L 148.550598 -178.069512 
L 148.557816 -176.966186 
L 148.566887 -175.86286 
L 148.580087 -174.759534 
L 148.599216 -173.656208 
L 148.625322 -172.552882 
L 148.658594 -171.449557 
L 148.698461 -170.346231 
L 148.743862 -169.242905 
L 148.793648 -168.139579 
L 148.84701 -167.036253 
L 148.903892 -165.932927 
L 148.965294 -164.829602 
L 149.033451 -163.726276 
L 149.111862 -162.62295 
L 149.20516 -161.519624 
L 149.318839 -160.416298 
L 149.45885 -159.312972 
L 149.631071 -158.209647 
L 149.840709 -157.106321 
L 150.091665 -156.002995 
L 150.385967 -154.899669 
L 150.723349 -153.796343 
L 151.101092 -152.693018 
L 151.514199 -151.589692 
L 151.955931 -150.486366 
L 152.418664 -149.38304 
L 152.894957 -148.279714 
L 153.378658 -147.176388 
L 153.865864 -146.073063 
L 154.355576 -144.969737 
L 154.849939 -143.866411 
L 155.354045 -142.763085 
L 155.875344 -141.659759 
L 156.422761 -140.556433 
L 157.005611 -139.453108 
L 157.632417 -138.349782 
L 158.309674 -137.246456 
L 159.040607 -136.14313 
L 159.824021 -135.039804 
L 160.653328 -133.936479 
L 161.515979 -132.833153 
L 162.393498 -131.729827 
L 163.262319 -130.626501 
L 164.095503 -129.523175 
L 164.865199 -128.419849 
L 165.545534 -127.316524 
L 166.115405 -126.213198 
L 166.560649 -125.109872 
L 166.875097 -124.006546 
L 167.060335 -122.90322 
L 167.124223 -121.799894 
L 167.078558 -120.696569 
L 166.936434 -119.593243 
L 166.709859 -118.489917 
L 166.408077 -117.386591 
L 166.036829 -116.283265 
L 165.598551 -115.179939 
L 165.093329 -114.076614 
L 164.520373 -112.973288 
L 163.879711 -111.869962 
L 163.173879 -110.766636 
L 162.409357 -109.66331 
L 161.597518 -108.559985 
L 160.754858 -107.456659 
L 159.902333 -106.353333 
L 159.063724 -105.250007 
L 158.263172 -104.146681 
L 157.522224 -103.043355 
L 156.856929 -101.94003 
L 156.275558 -100.836704 
L 155.777458 -99.733378 
L 155.353319 -98.630052 
L 154.98683 -97.526726 
L 154.657412 -96.4234 
L 154.34352 -95.320075 
L 154.025905 -94.216749 
L 153.690283 -93.113423 
L 153.329033 -92.010097 
L 152.941717 -90.906771 
L 152.534465 -89.803445 
L 152.118439 -88.70012 
L 151.707705 -87.596794 
L 151.31691 -86.493468 
L 150.959134 -85.390142 
L 150.644205 -84.286816 
L 150.377671 -83.183491 
L 150.160476 -82.080165 
L 149.989301 -80.976839 
L 149.857417 -79.873513 
L 149.755857 -78.770187 
L 149.674712 -77.666861 
L 149.604341 -76.563536 
L 149.536372 -75.46021 
L 149.464399 -74.356884 
L 149.384351 -73.253558 
L 149.29454 -72.150232 
L 149.19545 -71.046906 
z
" style="stroke: #ffffff; stroke-opacity: 0.65"/>
    </defs>
    <g clip-path="url(#p940c20122f)">
     <use xlink:href="#m6e3e950d41" x="0" y="230.106" style="fill: #2f6b9a; fill-opacity: 0.65; stroke: #ffffff; stroke-opacity: 0.65"/>
    </g>
   </g>
   <g id="PolyCollection_3">
    <defs>
     <path id="md55b6608d1" d="M 224.585128 -60.57864 
L 222.712668 -60.57864 
L 222.590663 -61.707578 
L 222.461485 -62.836516 
L 222.324495 -63.965454 
L 222.178642 -65.094391 
L 222.022452 -66.223329 
L 221.854036 -67.352267 
L 221.671108 -68.481205 
L 221.470998 -69.610143 
L 221.250661 -70.739081 
L 221.006692 -71.868019 
L 220.735356 -72.996957 
L 220.432649 -74.125894 
L 220.094418 -75.254832 
L 219.716553 -76.38377 
L 219.295267 -77.512708 
L 218.827453 -78.641646 
L 218.31111 -79.770584 
L 217.745787 -80.899522 
L 217.133013 -82.028459 
L 216.476636 -83.157397 
L 215.783023 -84.286335 
L 215.061061 -85.415273 
L 214.321928 -86.544211 
L 213.578622 -87.673149 
L 212.845262 -88.802087 
L 212.13621 -89.931024 
L 211.465086 -91.059962 
L 210.843764 -92.1889 
L 210.281457 -93.317838 
L 209.783984 -94.446776 
L 209.353312 -95.575714 
L 208.987423 -96.704652 
L 208.680552 -97.833589 
L 208.423771 -98.962527 
L 208.205865 -100.091465 
L 208.014428 -101.220403 
L 207.837031 -102.349341 
L 207.662359 -103.478279 
L 207.481174 -104.607217 
L 207.286997 -105.736154 
L 207.076459 -106.865092 
L 206.849289 -107.99403 
L 206.607988 -109.122968 
L 206.357276 -110.251906 
L 206.103411 -111.380844 
L 205.853513 -112.509782 
L 205.614996 -113.63872 
L 205.395162 -114.767657 
L 205.200993 -115.896595 
L 205.039083 -117.025533 
L 204.915666 -118.154471 
L 204.836612 -119.283409 
L 204.80734 -120.412347 
L 204.832564 -121.541285 
L 204.915891 -122.670222 
L 205.059302 -123.79916 
L 205.262626 -124.928098 
L 205.523117 -126.057036 
L 205.83527 -127.185974 
L 206.190949 -128.314912 
L 206.579878 -129.44385 
L 206.990455 -130.572787 
L 207.410808 -131.701725 
L 207.829946 -132.830663 
L 208.238842 -133.959601 
L 208.631305 -135.088539 
L 209.004508 -136.217477 
L 209.359109 -137.346415 
L 209.698971 -138.475352 
L 210.030525 -139.60429 
L 210.361891 -140.733228 
L 210.701879 -141.862166 
L 211.059012 -142.991104 
L 211.440676 -144.120042 
L 211.852472 -145.24898 
L 212.297822 -146.377917 
L 212.7778 -147.506855 
L 213.291179 -148.635793 
L 213.834621 -149.764731 
L 214.402966 -150.893669 
L 214.989582 -152.022607 
L 215.586745 -153.151545 
L 216.18603 -154.280482 
L 216.778734 -155.40942 
L 217.356312 -156.538358 
L 217.910825 -157.667296 
L 218.435382 -158.796234 
L 218.924542 -159.925172 
L 219.37462 -161.05411 
L 219.783878 -162.183048 
L 220.152546 -163.311985 
L 220.482674 -164.440923 
L 220.777813 -165.569861 
L 221.04257 -166.698799 
L 221.282087 -167.827737 
L 221.501502 -168.956675 
L 221.705458 -170.085613 
L 221.897731 -171.21455 
L 222.080986 -172.343488 
L 225.21681 -172.343488 
L 225.21681 -172.343488 
L 225.400065 -171.21455 
L 225.592338 -170.085613 
L 225.796295 -168.956675 
L 226.015709 -167.827737 
L 226.255226 -166.698799 
L 226.519984 -165.569861 
L 226.815122 -164.440923 
L 227.14525 -163.311985 
L 227.513918 -162.183048 
L 227.923176 -161.05411 
L 228.373254 -159.925172 
L 228.862414 -158.796234 
L 229.386972 -157.667296 
L 229.941485 -156.538358 
L 230.519062 -155.40942 
L 231.111766 -154.280482 
L 231.711051 -153.151545 
L 232.308214 -152.022607 
L 232.894831 -150.893669 
L 233.463176 -149.764731 
L 234.006617 -148.635793 
L 234.519996 -147.506855 
L 234.999975 -146.377917 
L 235.445324 -145.24898 
L 235.85712 -144.120042 
L 236.238784 -142.991104 
L 236.595918 -141.862166 
L 236.935906 -140.733228 
L 237.267271 -139.60429 
L 237.598825 -138.475352 
L 237.938687 -137.346415 
L 238.293288 -136.217477 
L 238.666491 -135.088539 
L 239.058954 -133.959601 
L 239.46785 -132.830663 
L 239.886988 -131.701725 
L 240.307341 -130.572787 
L 240.717918 -129.44385 
L 241.106847 -128.314912 
L 241.462526 -127.185974 
L 241.774679 -126.057036 
L 242.035171 -124.928098 
L 242.238494 -123.79916 
L 242.381906 -122.670222 
L 242.465233 -121.541285 
L 242.490457 -120.412347 
L 242.461184 -119.283409 
L 242.38213 -118.154471 
L 242.258713 -117.025533 
L 242.096804 -115.896595 
L 241.902634 -114.767657 
L 241.682801 -113.63872 
L 241.444283 -112.509782 
L 241.194385 -111.380844 
L 240.94052 -110.251906 
L 240.689808 -109.122968 
L 240.448507 -107.99403 
L 240.221337 -106.865092 
L 240.010799 -105.736154 
L 239.816623 -104.607217 
L 239.635437 -103.478279 
L 239.460766 -102.349341 
L 239.283368 -101.220403 
L 239.091931 -100.091465 
L 238.874026 -98.962527 
L 238.617244 -97.833589 
L 238.310373 -96.704652 
L 237.944484 -95.575714 
L 237.513812 -94.446776 
L 237.01634 -93.317838 
L 236.454033 -92.1889 
L 235.83271 -91.059962 
L 235.161586 -89.931024 
L 234.452535 -88.802087 
L 233.719175 -87.673149 
L 232.975869 -86.544211 
L 232.236736 -85.415273 
L 231.514773 -84.286335 
L 230.82116 -83.157397 
L 230.164783 -82.028459 
L 229.552009 -80.899522 
L 228.986686 -79.770584 
L 228.470343 -78.641646 
L 228.002529 -77.512708 
L 227.581243 -76.38377 
L 227.203379 -75.254832 
L 226.865147 -74.125894 
L 226.56244 -72.996957 
L 226.291104 -71.868019 
L 226.047136 -70.739081 
L 225.826798 -69.610143 
L 225.626688 -68.481205 
L 225.443761 -67.352267 
L 225.275345 -66.223329 
L 225.119154 -65.094391 
L 224.973301 -63.965454 
L 224.836311 -62.836516 
L 224.707133 -61.707578 
L 224.585128 -60.57864 
z
" style="stroke: #ffffff; stroke-opacity: 0.65"/>
    </defs>
    <g clip-path="url(#p940c20122f)">
     <use xlink:href="#md55b6608d1" x="0" y="230.106" style="fill: #2f6b9a; fill-opacity: 0.65; stroke: #ffffff; stroke-opacity: 0.65"/>
    </g>
   </g>
   <g id="PolyCollection_4">
    <defs>
     <path id="mea08c76106" d="M 299.482552 -30.03425 
L 298.547712 -30.03425 
L 298.471986 -31.765159 
L 298.382044 -33.496068 
L 298.275007 -35.226977 
L 298.148204 -36.957886 
L 297.999427 -38.688795 
L 297.827128 -40.419705 
L 297.630498 -42.150614 
L 297.409408 -43.881523 
L 297.164208 -45.612432 
L 296.895425 -47.343341 
L 296.603407 -49.07425 
L 296.288008 -50.805159 
L 295.948379 -52.536068 
L 295.582939 -54.266977 
L 295.189556 -55.997886 
L 294.76592 -57.728795 
L 294.310066 -59.459705 
L 293.820952 -61.190614 
L 293.298986 -62.921523 
L 292.746416 -64.652432 
L 292.167498 -66.383341 
L 291.568416 -68.11425 
L 290.956975 -69.845159 
L 290.342109 -71.576068 
L 289.733301 -73.306977 
L 289.139987 -75.037886 
L 288.571035 -76.768795 
L 288.034319 -78.499705 
L 287.536417 -80.230614 
L 287.082392 -81.961523 
L 286.67564 -83.692432 
L 286.317745 -85.423341 
L 286.008339 -87.15425 
L 285.74496 -88.885159 
L 285.52294 -90.616068 
L 285.335388 -92.346977 
L 285.17331 -94.077886 
L 285.025931 -95.808795 
L 284.88124 -97.539705 
L 284.726753 -99.270614 
L 284.55045 -101.001523 
L 284.34182 -102.732432 
L 284.092894 -104.463341 
L 283.799173 -106.19425 
L 283.460339 -107.925159 
L 283.080641 -109.656068 
L 282.668914 -111.386977 
L 282.238181 -113.117886 
L 281.804862 -114.848795 
L 281.387639 -116.579705 
L 281.006062 -118.310614 
L 280.679022 -120.041523 
L 280.423235 -121.772432 
L 280.251886 -123.503341 
L 280.173573 -125.23425 
L 280.19168 -126.965159 
L 280.304244 -128.696068 
L 280.504349 -130.426977 
L 280.781009 -132.157886 
L 281.120441 -133.888795 
L 281.507579 -135.619705 
L 281.92766 -137.350614 
L 282.367687 -139.081523 
L 282.817602 -140.812432 
L 283.271037 -142.543341 
L 283.725578 -144.27425 
L 284.182539 -146.005159 
L 284.646291 -147.736068 
L 285.123273 -149.466977 
L 285.620804 -151.197886 
L 286.145862 -152.928795 
L 286.703952 -154.659705 
L 287.298177 -156.390614 
L 287.928608 -158.121523 
L 288.591972 -159.852432 
L 289.2817 -161.583341 
L 289.988295 -163.31425 
L 290.699997 -165.045159 
L 291.403668 -166.776068 
L 292.085809 -168.506977 
L 292.733622 -170.237886 
L 293.335993 -171.968795 
L 293.884312 -173.699705 
L 294.373032 -175.430614 
L 294.799941 -177.161523 
L 295.166109 -178.892432 
L 295.475559 -180.623341 
L 295.734703 -182.35425 
L 295.951641 -184.085159 
L 296.135391 -185.816068 
L 296.29515 -187.546977 
L 296.439638 -189.277886 
L 296.576562 -191.008795 
L 296.71224 -192.739705 
L 296.851359 -194.470614 
L 296.996882 -196.201523 
L 297.150074 -197.932432 
L 297.310641 -199.663341 
L 297.476955 -201.39425 
L 300.553309 -201.39425 
L 300.553309 -201.39425 
L 300.719623 -199.663341 
L 300.88019 -197.932432 
L 301.033382 -196.201523 
L 301.178905 -194.470614 
L 301.318023 -192.739705 
L 301.453701 -191.008795 
L 301.590626 -189.277886 
L 301.735114 -187.546977 
L 301.894873 -185.816068 
L 302.078623 -184.085159 
L 302.29556 -182.35425 
L 302.554705 -180.623341 
L 302.864155 -178.892432 
L 303.230323 -177.161523 
L 303.657232 -175.430614 
L 304.145952 -173.699705 
L 304.694271 -171.968795 
L 305.296642 -170.237886 
L 305.944455 -168.506977 
L 306.626596 -166.776068 
L 307.330267 -165.045159 
L 308.041969 -163.31425 
L 308.748564 -161.583341 
L 309.438291 -159.852432 
L 310.101656 -158.121523 
L 310.732087 -156.390614 
L 311.326312 -154.659705 
L 311.884401 -152.928795 
L 312.40946 -151.197886 
L 312.906991 -149.466977 
L 313.383972 -147.736068 
L 313.847725 -146.005159 
L 314.304686 -144.27425 
L 314.759227 -142.543341 
L 315.212661 -140.812432 
L 315.662576 -139.081523 
L 316.102604 -137.350614 
L 316.522685 -135.619705 
L 316.909823 -133.888795 
L 317.249254 -132.157886 
L 317.525915 -130.426977 
L 317.72602 -128.696068 
L 317.838583 -126.965159 
L 317.85669 -125.23425 
L 317.778378 -123.503341 
L 317.607029 -121.772432 
L 317.351242 -120.041523 
L 317.024202 -118.310614 
L 316.642624 -116.579705 
L 316.225402 -114.848795 
L 315.792083 -113.117886 
L 315.36135 -111.386977 
L 314.949623 -109.656068 
L 314.569925 -107.925159 
L 314.231091 -106.19425 
L 313.93737 -104.463341 
L 313.688444 -102.732432 
L 313.479813 -101.001523 
L 313.303511 -99.270614 
L 313.149024 -97.539705 
L 313.004333 -95.808795 
L 312.856954 -94.077886 
L 312.694876 -92.346977 
L 312.507324 -90.616068 
L 312.285304 -88.885159 
L 312.021925 -87.15425 
L 311.712519 -85.423341 
L 311.354624 -83.692432 
L 310.947872 -81.961523 
L 310.493847 -80.230614 
L 309.995944 -78.499705 
L 309.459229 -76.768795 
L 308.890277 -75.037886 
L 308.296963 -73.306977 
L 307.688154 -71.576068 
L 307.073289 -69.845159 
L 306.461848 -68.11425 
L 305.862766 -66.383341 
L 305.283848 -64.652432 
L 304.731277 -62.921523 
L 304.209312 -61.190614 
L 303.720197 -59.459705 
L 303.264344 -57.728795 
L 302.840708 -55.997886 
L 302.447324 -54.266977 
L 302.081885 -52.536068 
L 301.742255 -50.805159 
L 301.426857 -49.07425 
L 301.134839 -47.343341 
L 300.866056 -45.612432 
L 300.620856 -43.881523 
L 300.399766 -42.150614 
L 300.203136 -40.419705 
L 300.030837 -38.688795 
L 299.88206 -36.957886 
L 299.755257 -35.226977 
L 299.64822 -33.496068 
L 299.558278 -31.765159 
L 299.482552 -30.03425 
z
" style="stroke: #ffffff; stroke-opacity: 0.65"/>
    </defs>
    <g clip-path="url(#p940c20122f)">
     <use xlink:href="#mea08c76106" x="0" y="230.106" style="fill: #2f6b9a; fill-opacity: 0.65; stroke: #ffffff; stroke-opacity: 0.65"/>
    </g>
   </g>
   <g id="matplotlib.axis_1">
    <g id="xtick_1">
     <g id="line2d_1">
      <defs>
       <path id="mfeaf13ace7" d="M 0 0 
L 0 3.5 
" style="stroke: #000000; stroke-width: 0.8"/>
      </defs>
      <g>
       <use xlink:href="#mfeaf13ace7" x="72.916431" y="208.63975" style="stroke: #000000; stroke-width: 0.8"/>
      </g>
     </g>
     <g id="text_1">
      <!-- 1h -->
      <g transform="translate(68.916431 221.19475) scale(0.08 -0.08)">
       <defs>
        <path id="TimesNewRomanPSMT-31" d="M 750 3822 
L 1781 4325 
L 1884 4325 
L 1884 747 
Q 1884 391 1914 303 
Q 1944 216 2037 169 
Q 2131 122 2419 116 
L 2419 0 
L 825 0 
L 825 116 
Q 1125 122 1212 167 
Q 1300 213 1334 289 
Q 1369 366 1369 747 
L 1369 3034 
Q 1369 3497 1338 3628 
Q 1316 3728 1258 3775 
Q 1200 3822 1119 3822 
Q 1003 3822 797 3725 
L 750 3822 
z
" transform="scale(0.015625)"/>
        <path id="TimesNewRomanPSMT-68" d="M 1041 4444 
L 1041 2350 
Q 1388 2731 1591 2839 
Q 1794 2947 1997 2947 
Q 2241 2947 2416 2812 
Q 2591 2678 2675 2391 
Q 2734 2191 2734 1659 
L 2734 647 
Q 2734 375 2778 275 
Q 2809 200 2884 156 
Q 2959 113 3159 113 
L 3159 0 
L 1753 0 
L 1753 113 
L 1819 113 
Q 2019 113 2097 173 
Q 2175 234 2206 353 
Q 2216 403 2216 647 
L 2216 1659 
Q 2216 2128 2167 2275 
Q 2119 2422 2012 2495 
Q 1906 2569 1756 2569 
Q 1603 2569 1437 2487 
Q 1272 2406 1041 2159 
L 1041 647 
Q 1041 353 1073 281 
Q 1106 209 1195 161 
Q 1284 113 1503 113 
L 1503 0 
L 84 0 
L 84 113 
Q 275 113 384 172 
Q 447 203 484 290 
Q 522 378 522 647 
L 522 3238 
Q 522 3728 498 3840 
Q 475 3953 426 3993 
Q 378 4034 297 4034 
Q 231 4034 84 3984 
L 41 4094 
L 897 4444 
L 1041 4444 
z
" transform="scale(0.015625)"/>
       </defs>
       <use xlink:href="#TimesNewRomanPSMT-31"/>
       <use xlink:href="#TimesNewRomanPSMT-68" x="50"/>
      </g>
     </g>
    </g>
    <g id="xtick_2">
     <g id="line2d_2">
      <g>
       <use xlink:href="#mfeaf13ace7" x="148.282664" y="208.63975" style="stroke: #000000; stroke-width: 0.8"/>
      </g>
     </g>
     <g id="text_2">
      <!-- 6h -->
      <g transform="translate(144.282664 221.19475) scale(0.08 -0.08)">
       <defs>
        <path id="TimesNewRomanPSMT-36" d="M 2869 4325 
L 2869 4209 
Q 2456 4169 2195 4045 
Q 1934 3922 1679 3669 
Q 1425 3416 1258 3105 
Q 1091 2794 978 2366 
Q 1428 2675 1881 2675 
Q 2316 2675 2634 2325 
Q 2953 1975 2953 1425 
Q 2953 894 2631 456 
Q 2244 -75 1606 -75 
Q 1172 -75 869 213 
Q 275 772 275 1663 
Q 275 2231 503 2743 
Q 731 3256 1154 3653 
Q 1578 4050 1965 4187 
Q 2353 4325 2688 4325 
L 2869 4325 
z
M 925 2138 
Q 869 1716 869 1456 
Q 869 1156 980 804 
Q 1091 453 1309 247 
Q 1469 100 1697 100 
Q 1969 100 2183 356 
Q 2397 613 2397 1088 
Q 2397 1622 2184 2012 
Q 1972 2403 1581 2403 
Q 1463 2403 1327 2353 
Q 1191 2303 925 2138 
z
" transform="scale(0.015625)"/>
       </defs>
       <use xlink:href="#TimesNewRomanPSMT-36"/>
       <use xlink:href="#TimesNewRomanPSMT-68" x="50"/>
      </g>
     </g>
    </g>
    <g id="xtick_3">
     <g id="line2d_3">
      <g>
       <use xlink:href="#mfeaf13ace7" x="223.648898" y="208.63975" style="stroke: #000000; stroke-width: 0.8"/>
      </g>
     </g>
     <g id="text_3">
      <!-- 12h -->
      <g transform="translate(217.648898 221.19475) scale(0.08 -0.08)">
       <defs>
        <path id="TimesNewRomanPSMT-32" d="M 2934 816 
L 2638 0 
L 138 0 
L 138 116 
Q 1241 1122 1691 1759 
Q 2141 2397 2141 2925 
Q 2141 3328 1894 3587 
Q 1647 3847 1303 3847 
Q 991 3847 742 3664 
Q 494 3481 375 3128 
L 259 3128 
Q 338 3706 661 4015 
Q 984 4325 1469 4325 
Q 1984 4325 2329 3994 
Q 2675 3663 2675 3213 
Q 2675 2891 2525 2569 
Q 2294 2063 1775 1497 
Q 997 647 803 472 
L 1909 472 
Q 2247 472 2383 497 
Q 2519 522 2628 598 
Q 2738 675 2819 816 
L 2934 816 
z
" transform="scale(0.015625)"/>
       </defs>
       <use xlink:href="#TimesNewRomanPSMT-31"/>
       <use xlink:href="#TimesNewRomanPSMT-32" x="50"/>
       <use xlink:href="#TimesNewRomanPSMT-68" x="100"/>
      </g>
     </g>
    </g>
    <g id="xtick_4">
     <g id="line2d_4">
      <g>
       <use xlink:href="#mfeaf13ace7" x="299.015132" y="208.63975" style="stroke: #000000; stroke-width: 0.8"/>
      </g>
     </g>
     <g id="text_4">
      <!-- 24h -->
      <g transform="translate(293.015132 221.19475) scale(0.08 -0.08)">
       <defs>
        <path id="TimesNewRomanPSMT-34" d="M 2978 1563 
L 2978 1119 
L 2409 1119 
L 2409 0 
L 1894 0 
L 1894 1119 
L 100 1119 
L 100 1519 
L 2066 4325 
L 2409 4325 
L 2409 1563 
L 2978 1563 
z
M 1894 1563 
L 1894 3666 
L 406 1563 
L 1894 1563 
z
" transform="scale(0.015625)"/>
       </defs>
       <use xlink:href="#TimesNewRomanPSMT-32"/>
       <use xlink:href="#TimesNewRomanPSMT-34" x="50"/>
       <use xlink:href="#TimesNewRomanPSMT-68" x="100"/>
      </g>
     </g>
    </g>
   </g>
   <g id="matplotlib.axis_2">
    <g id="ytick_1">
     <g id="line2d_5">
      <defs>
       <path id="mba6fc1213f" d="M 0 0 
L -3.5 0 
" style="stroke: #000000; stroke-width: 0.8"/>
      </defs>
      <g>
       <use xlink:href="#mba6fc1213f" x="40.885781" y="201.650839" style="stroke: #000000; stroke-width: 0.8"/>
      </g>
     </g>
     <g id="text_5">
      <!-- −0.6 -->
      <g transform="translate(19.374531 204.428339) scale(0.08 -0.08)">
       <defs>
        <path id="TimesNewRomanPSMT-2212" d="M 3484 2000 
L 116 2000 
L 116 2256 
L 3484 2256 
L 3484 2000 
z
" transform="scale(0.015625)"/>
        <path id="TimesNewRomanPSMT-30" d="M 231 2094 
Q 231 2819 450 3342 
Q 669 3866 1031 4122 
Q 1313 4325 1613 4325 
Q 2100 4325 2488 3828 
Q 2972 3213 2972 2159 
Q 2972 1422 2759 906 
Q 2547 391 2217 158 
Q 1888 -75 1581 -75 
Q 975 -75 572 641 
Q 231 1244 231 2094 
z
M 844 2016 
Q 844 1141 1059 588 
Q 1238 122 1591 122 
Q 1759 122 1940 273 
Q 2122 425 2216 781 
Q 2359 1319 2359 2297 
Q 2359 3022 2209 3506 
Q 2097 3866 1919 4016 
Q 1791 4119 1609 4119 
Q 1397 4119 1231 3928 
Q 1006 3669 925 3112 
Q 844 2556 844 2016 
z
" transform="scale(0.015625)"/>
        <path id="TimesNewRomanPSMT-2e" d="M 800 606 
Q 947 606 1047 504 
Q 1147 403 1147 259 
Q 1147 116 1045 14 
Q 944 -88 800 -88 
Q 656 -88 554 14 
Q 453 116 453 259 
Q 453 406 554 506 
Q 656 606 800 606 
z
" transform="scale(0.015625)"/>
       </defs>
       <use xlink:href="#TimesNewRomanPSMT-2212"/>
       <use xlink:href="#TimesNewRomanPSMT-30" x="56.396484"/>
       <use xlink:href="#TimesNewRomanPSMT-2e" x="106.396484"/>
       <use xlink:href="#TimesNewRomanPSMT-36" x="131.396484"/>
      </g>
     </g>
    </g>
    <g id="ytick_2">
     <g id="line2d_6">
      <g>
       <use xlink:href="#mba6fc1213f" x="40.885781" y="171.607234" style="stroke: #000000; stroke-width: 0.8"/>
      </g>
     </g>
     <g id="text_6">
      <!-- −0.4 -->
      <g transform="translate(19.374531 174.384734) scale(0.08 -0.08)">
       <use xlink:href="#TimesNewRomanPSMT-2212"/>
       <use xlink:href="#TimesNewRomanPSMT-30" x="56.396484"/>
       <use xlink:href="#TimesNewRomanPSMT-2e" x="106.396484"/>
       <use xlink:href="#TimesNewRomanPSMT-34" x="131.396484"/>
      </g>
     </g>
    </g>
    <g id="ytick_3">
     <g id="line2d_7">
      <g>
       <use xlink:href="#mba6fc1213f" x="40.885781" y="141.563629" style="stroke: #000000; stroke-width: 0.8"/>
      </g>
     </g>
     <g id="text_7">
      <!-- −0.2 -->
      <g transform="translate(19.374531 144.341129) scale(0.08 -0.08)">
       <use xlink:href="#TimesNewRomanPSMT-2212"/>
       <use xlink:href="#TimesNewRomanPSMT-30" x="56.396484"/>
       <use xlink:href="#TimesNewRomanPSMT-2e" x="106.396484"/>
       <use xlink:href="#TimesNewRomanPSMT-32" x="131.396484"/>
      </g>
     </g>
    </g>
    <g id="ytick_4">
     <g id="line2d_8">
      <g>
       <use xlink:href="#mba6fc1213f" x="40.885781" y="111.520024" style="stroke: #000000; stroke-width: 0.8"/>
      </g>
     </g>
     <g id="text_8">
      <!-- 0.0 -->
      <g transform="translate(23.885781 114.297524) scale(0.08 -0.08)">
       <use xlink:href="#TimesNewRomanPSMT-30"/>
       <use xlink:href="#TimesNewRomanPSMT-2e" x="50"/>
       <use xlink:href="#TimesNewRomanPSMT-30" x="75"/>
      </g>
     </g>
    </g>
    <g id="ytick_5">
     <g id="line2d_9">
      <g>
       <use xlink:href="#mba6fc1213f" x="40.885781" y="81.476419" style="stroke: #000000; stroke-width: 0.8"/>
      </g>
     </g>
     <g id="text_9">
      <!-- 0.2 -->
      <g transform="translate(23.885781 84.253919) scale(0.08 -0.08)">
       <use xlink:href="#TimesNewRomanPSMT-30"/>
       <use xlink:href="#TimesNewRomanPSMT-2e" x="50"/>
       <use xlink:href="#TimesNewRomanPSMT-32" x="75"/>
      </g>
     </g>
    </g>
    <g id="ytick_6">
     <g id="line2d_10">
      <g>
       <use xlink:href="#mba6fc1213f" x="40.885781" y="51.432814" style="stroke: #000000; stroke-width: 0.8"/>
      </g>
     </g>
     <g id="text_10">
      <!-- 0.4 -->
      <g transform="translate(23.885781 54.210314) scale(0.08 -0.08)">
       <use xlink:href="#TimesNewRomanPSMT-30"/>
       <use xlink:href="#TimesNewRomanPSMT-2e" x="50"/>
       <use xlink:href="#TimesNewRomanPSMT-34" x="75"/>
      </g>
     </g>
    </g>
    <g id="ytick_7">
     <g id="line2d_11">
      <g>
       <use xlink:href="#mba6fc1213f" x="40.885781" y="21.389209" style="stroke: #000000; stroke-width: 0.8"/>
      </g>
     </g>
     <g id="text_11">
      <!-- 0.6 -->
      <g transform="translate(23.885781 24.166709) scale(0.08 -0.08)">
       <use xlink:href="#TimesNewRomanPSMT-30"/>
       <use xlink:href="#TimesNewRomanPSMT-2e" x="50"/>
       <use xlink:href="#TimesNewRomanPSMT-36" x="75"/>
      </g>
     </g>
    </g>
    <g id="text_12">
     <!-- Forecast error (MW) -->
     <g transform="translate(13.449375 151.875344) rotate(-90) scale(0.09 -0.09)">
      <defs>
       <path id="TimesNewRomanPSMT-46" d="M 1309 4006 
L 1309 2341 
L 2081 2341 
Q 2347 2341 2470 2458 
Q 2594 2575 2634 2922 
L 2750 2922 
L 2750 1488 
L 2634 1488 
Q 2631 1734 2570 1850 
Q 2509 1966 2401 2023 
Q 2294 2081 2081 2081 
L 1309 2081 
L 1309 750 
Q 1309 428 1350 325 
Q 1381 247 1481 191 
Q 1619 116 1769 116 
L 1922 116 
L 1922 0 
L 103 0 
L 103 116 
L 253 116 
Q 516 116 634 269 
Q 709 369 709 750 
L 709 3488 
Q 709 3809 669 3913 
Q 638 3991 541 4047 
Q 406 4122 253 4122 
L 103 4122 
L 103 4238 
L 3256 4238 
L 3297 3306 
L 3188 3306 
Q 3106 3603 2998 3742 
Q 2891 3881 2733 3943 
Q 2575 4006 2244 4006 
L 1309 4006 
z
" transform="scale(0.015625)"/>
       <path id="TimesNewRomanPSMT-6f" d="M 1600 2947 
Q 2250 2947 2644 2453 
Q 2978 2031 2978 1484 
Q 2978 1100 2793 706 
Q 2609 313 2286 112 
Q 1963 -88 1566 -88 
Q 919 -88 538 428 
Q 216 863 216 1403 
Q 216 1797 411 2186 
Q 606 2575 925 2761 
Q 1244 2947 1600 2947 
z
M 1503 2744 
Q 1338 2744 1170 2645 
Q 1003 2547 900 2300 
Q 797 2053 797 1666 
Q 797 1041 1045 587 
Q 1294 134 1700 134 
Q 2003 134 2200 384 
Q 2397 634 2397 1244 
Q 2397 2006 2069 2444 
Q 1847 2744 1503 2744 
z
" transform="scale(0.015625)"/>
       <path id="TimesNewRomanPSMT-72" d="M 1038 2947 
L 1038 2303 
Q 1397 2947 1775 2947 
Q 1947 2947 2059 2842 
Q 2172 2738 2172 2600 
Q 2172 2478 2090 2393 
Q 2009 2309 1897 2309 
Q 1788 2309 1652 2417 
Q 1516 2525 1450 2525 
Q 1394 2525 1328 2463 
Q 1188 2334 1038 2041 
L 1038 669 
Q 1038 431 1097 309 
Q 1138 225 1241 169 
Q 1344 113 1538 113 
L 1538 0 
L 72 0 
L 72 113 
Q 291 113 397 181 
Q 475 231 506 341 
Q 522 394 522 644 
L 522 1753 
Q 522 2253 501 2348 
Q 481 2444 426 2487 
Q 372 2531 291 2531 
Q 194 2531 72 2484 
L 41 2597 
L 906 2947 
L 1038 2947 
z
" transform="scale(0.015625)"/>
       <path id="TimesNewRomanPSMT-65" d="M 681 1784 
Q 678 1147 991 784 
Q 1303 422 1725 422 
Q 2006 422 2214 576 
Q 2422 731 2563 1106 
L 2659 1044 
Q 2594 616 2278 264 
Q 1963 -88 1488 -88 
Q 972 -88 605 314 
Q 238 716 238 1394 
Q 238 2128 614 2539 
Q 991 2950 1559 2950 
Q 2041 2950 2350 2633 
Q 2659 2316 2659 1784 
L 681 1784 
z
M 681 1966 
L 2006 1966 
Q 1991 2241 1941 2353 
Q 1863 2528 1708 2628 
Q 1553 2728 1384 2728 
Q 1125 2728 920 2526 
Q 716 2325 681 1966 
z
" transform="scale(0.015625)"/>
       <path id="TimesNewRomanPSMT-63" d="M 2631 1088 
Q 2516 522 2178 217 
Q 1841 -88 1431 -88 
Q 944 -88 581 321 
Q 219 731 219 1428 
Q 219 2103 620 2525 
Q 1022 2947 1584 2947 
Q 2006 2947 2278 2723 
Q 2550 2500 2550 2259 
Q 2550 2141 2473 2067 
Q 2397 1994 2259 1994 
Q 2075 1994 1981 2113 
Q 1928 2178 1911 2362 
Q 1894 2547 1784 2644 
Q 1675 2738 1481 2738 
Q 1169 2738 978 2506 
Q 725 2200 725 1697 
Q 725 1184 976 792 
Q 1228 400 1656 400 
Q 1963 400 2206 609 
Q 2378 753 2541 1131 
L 2631 1088 
z
" transform="scale(0.015625)"/>
       <path id="TimesNewRomanPSMT-61" d="M 1822 413 
Q 1381 72 1269 19 
Q 1100 -59 909 -59 
Q 613 -59 420 144 
Q 228 347 228 678 
Q 228 888 322 1041 
Q 450 1253 767 1440 
Q 1084 1628 1822 1897 
L 1822 2009 
Q 1822 2438 1686 2597 
Q 1550 2756 1291 2756 
Q 1094 2756 978 2650 
Q 859 2544 859 2406 
L 866 2225 
Q 866 2081 792 2003 
Q 719 1925 600 1925 
Q 484 1925 411 2006 
Q 338 2088 338 2228 
Q 338 2497 613 2722 
Q 888 2947 1384 2947 
Q 1766 2947 2009 2819 
Q 2194 2722 2281 2516 
Q 2338 2381 2338 1966 
L 2338 994 
Q 2338 584 2353 492 
Q 2369 400 2405 369 
Q 2441 338 2488 338 
Q 2538 338 2575 359 
Q 2641 400 2828 588 
L 2828 413 
Q 2478 -56 2159 -56 
Q 2006 -56 1915 50 
Q 1825 156 1822 413 
z
M 1822 616 
L 1822 1706 
Q 1350 1519 1213 1441 
Q 966 1303 859 1153 
Q 753 1003 753 825 
Q 753 600 887 451 
Q 1022 303 1197 303 
Q 1434 303 1822 616 
z
" transform="scale(0.015625)"/>
       <path id="TimesNewRomanPSMT-73" d="M 2050 2947 
L 2050 1972 
L 1947 1972 
Q 1828 2431 1642 2597 
Q 1456 2763 1169 2763 
Q 950 2763 815 2647 
Q 681 2531 681 2391 
Q 681 2216 781 2091 
Q 878 1963 1175 1819 
L 1631 1597 
Q 2266 1288 2266 781 
Q 2266 391 1970 151 
Q 1675 -88 1309 -88 
Q 1047 -88 709 6 
Q 606 38 541 38 
Q 469 38 428 -44 
L 325 -44 
L 325 978 
L 428 978 
Q 516 541 762 319 
Q 1009 97 1316 97 
Q 1531 97 1667 223 
Q 1803 350 1803 528 
Q 1803 744 1651 891 
Q 1500 1038 1047 1263 
Q 594 1488 453 1669 
Q 313 1847 313 2119 
Q 313 2472 555 2709 
Q 797 2947 1181 2947 
Q 1350 2947 1591 2875 
Q 1750 2828 1803 2828 
Q 1853 2828 1881 2850 
Q 1909 2872 1947 2947 
L 2050 2947 
z
" transform="scale(0.015625)"/>
       <path id="TimesNewRomanPSMT-74" d="M 1031 3803 
L 1031 2863 
L 1700 2863 
L 1700 2644 
L 1031 2644 
L 1031 788 
Q 1031 509 1111 412 
Q 1191 316 1316 316 
Q 1419 316 1516 380 
Q 1613 444 1666 569 
L 1788 569 
Q 1678 263 1478 108 
Q 1278 -47 1066 -47 
Q 922 -47 784 33 
Q 647 113 581 261 
Q 516 409 516 719 
L 516 2644 
L 63 2644 
L 63 2747 
Q 234 2816 414 2980 
Q 594 3144 734 3369 
Q 806 3488 934 3803 
L 1031 3803 
z
" transform="scale(0.015625)"/>
       <path id="TimesNewRomanPSMT-20" transform="scale(0.015625)"/>
       <path id="TimesNewRomanPSMT-28" d="M 1988 -1253 
L 1988 -1369 
Q 1516 -1131 1200 -813 
Q 750 -359 506 256 
Q 263 872 263 1534 
Q 263 2503 741 3301 
Q 1219 4100 1988 4444 
L 1988 4313 
Q 1603 4100 1356 3731 
Q 1109 3363 987 2797 
Q 866 2231 866 1616 
Q 866 947 969 400 
Q 1050 -31 1165 -292 
Q 1281 -553 1476 -793 
Q 1672 -1034 1988 -1253 
z
" transform="scale(0.015625)"/>
       <path id="TimesNewRomanPSMT-4d" d="M 2619 0 
L 981 3566 
L 981 734 
Q 981 344 1066 247 
Q 1181 116 1431 116 
L 1581 116 
L 1581 0 
L 106 0 
L 106 116 
L 256 116 
Q 525 116 638 278 
Q 706 378 706 734 
L 706 3503 
Q 706 3784 644 3909 
Q 600 4000 483 4061 
Q 366 4122 106 4122 
L 106 4238 
L 1306 4238 
L 2844 922 
L 4356 4238 
L 5556 4238 
L 5556 4122 
L 5409 4122 
Q 5138 4122 5025 3959 
Q 4956 3859 4956 3503 
L 4956 734 
Q 4956 344 5044 247 
Q 5159 116 5409 116 
L 5556 116 
L 5556 0 
L 3756 0 
L 3756 116 
L 3906 116 
Q 4178 116 4288 278 
Q 4356 378 4356 734 
L 4356 3566 
L 2722 0 
L 2619 0 
z
" transform="scale(0.015625)"/>
       <path id="TimesNewRomanPSMT-57" d="M 5991 4238 
L 5991 4122 
Q 5825 4122 5722 4062 
Q 5619 4003 5525 3841 
Q 5463 3731 5328 3319 
L 4147 -97 
L 4022 -97 
L 3056 2613 
L 2097 -97 
L 1984 -97 
L 725 3422 
Q 584 3816 547 3888 
Q 484 4006 376 4064 
Q 269 4122 84 4122 
L 84 4238 
L 1653 4238 
L 1653 4122 
L 1578 4122 
Q 1413 4122 1325 4047 
Q 1238 3972 1238 3866 
Q 1238 3756 1375 3363 
L 2209 984 
L 2913 3006 
L 2788 3363 
L 2688 3647 
Q 2622 3803 2541 3922 
Q 2500 3981 2441 4022 
Q 2363 4078 2284 4103 
Q 2225 4122 2097 4122 
L 2097 4238 
L 3747 4238 
L 3747 4122 
L 3634 4122 
Q 3459 4122 3378 4047 
Q 3297 3972 3297 3844 
Q 3297 3684 3438 3288 
L 4250 984 
L 5056 3319 
Q 5194 3706 5194 3856 
Q 5194 3928 5148 3990 
Q 5103 4053 5034 4078 
Q 4916 4122 4725 4122 
L 4725 4238 
L 5991 4238 
z
" transform="scale(0.015625)"/>
       <path id="TimesNewRomanPSMT-29" d="M 144 4313 
L 144 4444 
Q 619 4209 934 3891 
Q 1381 3434 1625 2820 
Q 1869 2206 1869 1541 
Q 1869 572 1392 -226 
Q 916 -1025 144 -1369 
L 144 -1253 
Q 528 -1038 776 -670 
Q 1025 -303 1145 264 
Q 1266 831 1266 1447 
Q 1266 2113 1163 2663 
Q 1084 3094 967 3353 
Q 850 3613 656 3853 
Q 463 4094 144 4313 
z
" transform="scale(0.015625)"/>
      </defs>
      <use xlink:href="#TimesNewRomanPSMT-46"/>
      <use xlink:href="#TimesNewRomanPSMT-6f" x="55.615234"/>
      <use xlink:href="#TimesNewRomanPSMT-72" x="105.615234"/>
      <use xlink:href="#TimesNewRomanPSMT-65" x="138.916016"/>
      <use xlink:href="#TimesNewRomanPSMT-63" x="183.300781"/>
      <use xlink:href="#TimesNewRomanPSMT-61" x="227.685547"/>
      <use xlink:href="#TimesNewRomanPSMT-73" x="272.070312"/>
      <use xlink:href="#TimesNewRomanPSMT-74" x="310.986328"/>
      <use xlink:href="#TimesNewRomanPSMT-20" x="338.769531"/>
      <use xlink:href="#TimesNewRomanPSMT-65" x="363.769531"/>
      <use xlink:href="#TimesNewRomanPSMT-72" x="408.154297"/>
      <use xlink:href="#TimesNewRomanPSMT-72" x="441.455078"/>
      <use xlink:href="#TimesNewRomanPSMT-6f" x="474.755859"/>
      <use xlink:href="#TimesNewRomanPSMT-72" x="524.755859"/>
      <use xlink:href="#TimesNewRomanPSMT-20" x="558.056641"/>
      <use xlink:href="#TimesNewRomanPSMT-28" x="583.056641"/>
      <use xlink:href="#TimesNewRomanPSMT-4d" x="616.357422"/>
      <use xlink:href="#TimesNewRomanPSMT-57" x="705.273438"/>
      <use xlink:href="#TimesNewRomanPSMT-29" x="799.658203"/>
     </g>
    </g>
   </g>
   <g id="LineCollection_1">
    <path d="M 63.495651 111.446345 
L 82.33721 111.446345 
" clip-path="url(#p940c20122f)" style="fill: none; stroke: #e76f51; stroke-width: 1.5"/>
    <path d="M 138.861885 110.254886 
L 157.703444 110.254886 
" clip-path="url(#p940c20122f)" style="fill: none; stroke: #e76f51; stroke-width: 1.5"/>
    <path d="M 214.228119 111.548069 
L 233.069677 111.548069 
" clip-path="url(#p940c20122f)" style="fill: none; stroke: #e76f51; stroke-width: 1.5"/>
    <path d="M 289.594353 110.522145 
L 308.435911 110.522145 
" clip-path="url(#p940c20122f)" style="fill: none; stroke: #e76f51; stroke-width: 1.5"/>
   </g>
   <g id="line2d_12">
    <path d="M 40.885781 111.520024 
L 331.045781 111.520024 
" clip-path="url(#p940c20122f)" style="fill: none; stroke: #4d4d4d; stroke-width: 0.8; stroke-linecap: square"/>
   </g>
   <g id="patch_3">
    <path d="M 40.885781 208.63975 
L 40.885781 20.14375 
" style="fill: none; stroke: #000000; stroke-width: 0.8; stroke-linejoin: miter; stroke-linecap: square"/>
   </g>
   <g id="patch_4">
    <path d="M 40.885781 208.63975 
L 331.045781 208.63975 
" style="fill: none; stroke: #000000; stroke-width: 0.8; stroke-linejoin: miter; stroke-linecap: square"/>
   </g>
   <g id="text_13">
    <!-- Error spread increases with horizon -->
    <g transform="translate(114.880625 14.14375) scale(0.1 -0.1)">
     <defs>
      <path id="TimesNewRomanPSMT-45" d="M 1338 4006 
L 1338 2331 
L 2269 2331 
Q 2631 2331 2753 2441 
Q 2916 2584 2934 2947 
L 3050 2947 
L 3050 1472 
L 2934 1472 
Q 2891 1781 2847 1869 
Q 2791 1978 2662 2040 
Q 2534 2103 2269 2103 
L 1338 2103 
L 1338 706 
Q 1338 425 1363 364 
Q 1388 303 1450 267 
Q 1513 231 1688 231 
L 2406 231 
Q 2766 231 2928 281 
Q 3091 331 3241 478 
Q 3434 672 3638 1063 
L 3763 1063 
L 3397 0 
L 131 0 
L 131 116 
L 281 116 
Q 431 116 566 188 
Q 666 238 702 338 
Q 738 438 738 747 
L 738 3500 
Q 738 3903 656 3997 
Q 544 4122 281 4122 
L 131 4122 
L 131 4238 
L 3397 4238 
L 3444 3309 
L 3322 3309 
Q 3256 3644 3176 3769 
Q 3097 3894 2941 3959 
Q 2816 4006 2500 4006 
L 1338 4006 
z
" transform="scale(0.015625)"/>
      <path id="TimesNewRomanPSMT-70" d="M -6 2578 
L 875 2934 
L 994 2934 
L 994 2266 
Q 1216 2644 1439 2795 
Q 1663 2947 1909 2947 
Q 2341 2947 2628 2609 
Q 2981 2197 2981 1534 
Q 2981 794 2556 309 
Q 2206 -88 1675 -88 
Q 1444 -88 1275 -22 
Q 1150 25 994 166 
L 994 -706 
Q 994 -1000 1030 -1079 
Q 1066 -1159 1155 -1206 
Q 1244 -1253 1478 -1253 
L 1478 -1369 
L -22 -1369 
L -22 -1253 
L 56 -1253 
Q 228 -1256 350 -1188 
Q 409 -1153 442 -1076 
Q 475 -1000 475 -688 
L 475 2019 
Q 475 2297 450 2372 
Q 425 2447 370 2484 
Q 316 2522 222 2522 
Q 147 2522 31 2478 
L -6 2578 
z
M 994 2081 
L 994 1013 
Q 994 666 1022 556 
Q 1066 375 1236 237 
Q 1406 100 1666 100 
Q 1978 100 2172 344 
Q 2425 663 2425 1241 
Q 2425 1897 2138 2250 
Q 1938 2494 1663 2494 
Q 1513 2494 1366 2419 
Q 1253 2363 994 2081 
z
" transform="scale(0.015625)"/>
      <path id="TimesNewRomanPSMT-64" d="M 2222 322 
Q 2013 103 1813 7 
Q 1613 -88 1381 -88 
Q 913 -88 563 304 
Q 213 697 213 1313 
Q 213 1928 600 2439 
Q 988 2950 1597 2950 
Q 1975 2950 2222 2709 
L 2222 3238 
Q 2222 3728 2198 3840 
Q 2175 3953 2125 3993 
Q 2075 4034 2000 4034 
Q 1919 4034 1784 3984 
L 1744 4094 
L 2597 4444 
L 2738 4444 
L 2738 1134 
Q 2738 631 2761 520 
Q 2784 409 2836 365 
Q 2888 322 2956 322 
Q 3041 322 3181 375 
L 3216 266 
L 2366 -88 
L 2222 -88 
L 2222 322 
z
M 2222 541 
L 2222 2016 
Q 2203 2228 2109 2403 
Q 2016 2578 1861 2667 
Q 1706 2756 1559 2756 
Q 1284 2756 1069 2509 
Q 784 2184 784 1559 
Q 784 928 1059 592 
Q 1334 256 1672 256 
Q 1956 256 2222 541 
z
" transform="scale(0.015625)"/>
      <path id="TimesNewRomanPSMT-69" d="M 928 4444 
Q 1059 4444 1151 4351 
Q 1244 4259 1244 4128 
Q 1244 3997 1151 3903 
Q 1059 3809 928 3809 
Q 797 3809 703 3903 
Q 609 3997 609 4128 
Q 609 4259 701 4351 
Q 794 4444 928 4444 
z
M 1188 2947 
L 1188 647 
Q 1188 378 1227 289 
Q 1266 200 1342 156 
Q 1419 113 1622 113 
L 1622 0 
L 231 0 
L 231 113 
Q 441 113 512 153 
Q 584 194 626 287 
Q 669 381 669 647 
L 669 1750 
Q 669 2216 641 2353 
Q 619 2453 572 2492 
Q 525 2531 444 2531 
Q 356 2531 231 2484 
L 188 2597 
L 1050 2947 
L 1188 2947 
z
" transform="scale(0.015625)"/>
      <path id="TimesNewRomanPSMT-6e" d="M 1034 2341 
Q 1538 2947 1994 2947 
Q 2228 2947 2397 2830 
Q 2566 2713 2666 2444 
Q 2734 2256 2734 1869 
L 2734 647 
Q 2734 375 2778 278 
Q 2813 200 2889 156 
Q 2966 113 3172 113 
L 3172 0 
L 1756 0 
L 1756 113 
L 1816 113 
Q 2016 113 2095 173 
Q 2175 234 2206 353 
Q 2219 400 2219 647 
L 2219 1819 
Q 2219 2209 2117 2386 
Q 2016 2563 1775 2563 
Q 1403 2563 1034 2156 
L 1034 647 
Q 1034 356 1069 288 
Q 1113 197 1189 155 
Q 1266 113 1500 113 
L 1500 0 
L 84 0 
L 84 113 
L 147 113 
Q 366 113 442 223 
Q 519 334 519 647 
L 519 1709 
Q 519 2225 495 2337 
Q 472 2450 423 2490 
Q 375 2531 294 2531 
Q 206 2531 84 2484 
L 38 2597 
L 900 2947 
L 1034 2947 
L 1034 2341 
z
" transform="scale(0.015625)"/>
      <path id="TimesNewRomanPSMT-77" d="M 41 2863 
L 1241 2863 
L 1241 2747 
Q 1075 2734 1023 2687 
Q 972 2641 972 2553 
Q 972 2456 1025 2319 
L 1638 672 
L 2253 2013 
L 2091 2434 
Q 2016 2622 1894 2694 
Q 1825 2738 1638 2747 
L 1638 2863 
L 3000 2863 
L 3000 2747 
Q 2775 2738 2681 2666 
Q 2619 2616 2619 2506 
Q 2619 2444 2644 2378 
L 3294 734 
L 3897 2319 
Q 3959 2488 3959 2588 
Q 3959 2647 3898 2694 
Q 3838 2741 3659 2747 
L 3659 2863 
L 4563 2863 
L 4563 2747 
Q 4291 2706 4163 2378 
L 3206 -88 
L 3078 -88 
L 2363 1741 
L 1528 -88 
L 1413 -88 
L 494 2319 
Q 403 2547 315 2626 
Q 228 2706 41 2747 
L 41 2863 
z
" transform="scale(0.015625)"/>
      <path id="TimesNewRomanPSMT-7a" d="M 2688 878 
L 2653 0 
L 128 0 
L 128 113 
L 2028 2644 
L 1091 2644 
Q 788 2644 694 2605 
Q 600 2566 541 2456 
Q 456 2300 444 2069 
L 319 2069 
L 338 2863 
L 2738 2863 
L 2738 2747 
L 819 209 
L 1863 209 
Q 2191 209 2308 264 
Q 2425 319 2497 456 
Q 2547 556 2581 878 
L 2688 878 
z
" transform="scale(0.015625)"/>
     </defs>
     <use xlink:href="#TimesNewRomanPSMT-45"/>
     <use xlink:href="#TimesNewRomanPSMT-72" x="61.083984"/>
     <use xlink:href="#TimesNewRomanPSMT-72" x="94.384766"/>
     <use xlink:href="#TimesNewRomanPSMT-6f" x="127.685547"/>
     <use xlink:href="#TimesNewRomanPSMT-72" x="177.685547"/>
     <use xlink:href="#TimesNewRomanPSMT-20" x="210.986328"/>
     <use xlink:href="#TimesNewRomanPSMT-73" x="235.986328"/>
     <use xlink:href="#TimesNewRomanPSMT-70" x="274.902344"/>
     <use xlink:href="#TimesNewRomanPSMT-72" x="324.902344"/>
     <use xlink:href="#TimesNewRomanPSMT-65" x="358.203125"/>
     <use xlink:href="#TimesNewRomanPSMT-61" x="402.587891"/>
     <use xlink:href="#TimesNewRomanPSMT-64" x="446.972656"/>
     <use xlink:href="#TimesNewRomanPSMT-20" x="496.972656"/>
     <use xlink:href="#TimesNewRomanPSMT-69" x="521.972656"/>
     <use xlink:href="#TimesNewRomanPSMT-6e" x="549.755859"/>
     <use xlink:href="#TimesNewRomanPSMT-63" x="599.755859"/>
     <use xlink:href="#TimesNewRomanPSMT-72" x="644.140625"/>
     <use xlink:href="#TimesNewRomanPSMT-65" x="677.441406"/>
     <use xlink:href="#TimesNewRomanPSMT-61" x="721.826172"/>
     <use xlink:href="#TimesNewRomanPSMT-73" x="766.210938"/>
     <use xlink:href="#TimesNewRomanPSMT-65" x="805.126953"/>
     <use xlink:href="#TimesNewRomanPSMT-73" x="849.511719"/>
     <use xlink:href="#TimesNewRomanPSMT-20" x="888.427734"/>
     <use xlink:href="#TimesNewRomanPSMT-77" x="913.427734"/>
     <use xlink:href="#TimesNewRomanPSMT-69" x="985.644531"/>
     <use xlink:href="#TimesNewRomanPSMT-74" x="1013.427734"/>
     <use xlink:href="#TimesNewRomanPSMT-68" x="1041.210938"/>
     <use xlink:href="#TimesNewRomanPSMT-20" x="1091.210938"/>
     <use xlink:href="#TimesNewRomanPSMT-68" x="1116.210938"/>
     <use xlink:href="#TimesNewRomanPSMT-6f" x="1166.210938"/>
     <use xlink:href="#TimesNewRomanPSMT-72" x="1216.210938"/>
     <use xlink:href="#TimesNewRomanPSMT-69" x="1249.511719"/>
     <use xlink:href="#TimesNewRomanPSMT-7a" x="1277.294922"/>
     <use xlink:href="#TimesNewRomanPSMT-6f" x="1321.679688"/>
     <use xlink:href="#TimesNewRomanPSMT-6e" x="1371.679688"/>
    </g>
   </g>
  </g>
 </g>
 <defs>
  <clipPath id="p940c20122f">
   <rect x="40.885781" y="20.14375" width="290.16" height="188.496"/>
  </clipPath>
 </defs>
</svg>
