<?xml version="1.0" encoding="utf-8" standalone="no"?>
<!DOCTYPE svg PUBLIC "-//W3C//DTD SVG 1.1//EN"
  "http://www.w3.org/Graphics/SVG/1.1/DTD/svg11.dtd">
<svg xmlns:xlink="http://www.w3.org/1999/xlink" width="288.44675pt" height="295.458pt" viewBox="0 0 288.44675 295.458" xmlns="http://www.w3.org/2000/svg" version="1.1">
 <metadata>
  <rdf:RDF xmlns:dc="http://purl.org/dc/elements/1.1/" xmlns:cc="http://creativecommons.org/ns#" xmlns:rdf="http://www.w3.org/1999/02/22-rdf-syntax-ns#">
   <cc:Work>
    <dc:type rdf:resource="http://purl.org/dc/dcmitype/StillImage"/>
    <dc:date>2026-06-20T06:45:06.133439</dc:date>
    <dc:format>image/svg+xml</dc:format>
    <dc:creator>
     <cc:Agent>
      <dc:title>Matplotlib v3.9.4, https://matplotlib.org/</dc:title>
     </cc:Agent>
    </dc:creator>
   </cc:Work>
  </rdf:RDF>
 </metadata>
 <defs>
  <style type="text/css">*{stroke-linejoin: round; stroke-linecap: butt}</style>
 </defs>
 <g id="figure_1">
  <g id="patch_1">
   <path d="M 0 295.458 
L 288.44675 295.458 
L 288.44675 0 
L 0 0 
z
" style="fill: #ffffff"/>
  </g>
  <g id="axes_1">
   <g id="patch_2">
    <path d="M 261.647375 154.200875 
C 261.647375 138.912215 258.635842 123.772219 252.785126 109.647339 
C 246.934409 95.522459 238.35829 82.68739 227.547575 71.876675 
C 216.73686 61.06596 203.901791 52.489841 189.776911 46.639124 
C 175.652031 40.788408 160.512035 37.776875 145.223375 37.776875 
C 129.934715 37.776875 114.794719 40.788408 100.669839 46.639124 
C 86.544959 52.489841 73.70989 61.06596 62.899175 71.876675 
C 52.08846 82.68739 43.512341 95.522459 37.661624 109.647339 
C 31.810908 123.772219 28.799375 138.912215 28.799375 154.200875 
C 28.799375 169.489535 31.810908 184.629531 37.661624 198.754411 
C 43.512341 212.879291 52.08846 225.71436 62.899175 236.525075 
C 73.70989 247.33579 86.544959 255.911909 100.669839 261.762626 
C 114.794719 267.613342 129.934715 270.624875 145.223375 270.624875 
C 160.512035 270.624875 175.652031 267.613342 189.776911 261.762626 
C 203.901791 255.911909 216.73686 247.33579 227.547575 236.525075 
C 238.35829 225.71436 246.934409 212.879291 252.785126 198.754411 
C 258.635842 184.629531 261.647375 169.489535 261.647375 154.200875 
M 145.223375 154.200875 
C 145.223375 154.200875 145.223375 154.200875 145.223375 154.200875 
C 145.223375 154.200875 145.223375 154.200875 145.223375 154.200875 
C 145.223375 154.200875 145.223375 154.200875 145.223375 154.200875 
C 145.223375 154.200875 145.223375 154.200875 145.223375 154.200875 
C 145.223375 154.200875 145.223375 154.200875 145.223375 154.200875 
C 145.223375 154.200875 145.223375 154.200875 145.223375 154.200875 
C 145.223375 154.200875 145.223375 154.200875 145.223375 154.200875 
C 145.223375 154.200875 145.223375 154.200875 145.223375 154.200875 
C 145.223375 154.200875 145.223375 154.200875 145.223375 154.200875 
C 145.223375 154.200875 145.223375 154.200875 145.223375 154.200875 
C 145.223375 154.200875 145.223375 154.200875 145.223375 154.200875 
C 145.223375 154.200875 145.223375 154.200875 145.223375 154.200875 
C 145.223375 154.200875 145.223375 154.200875 145.223375 154.200875 
C 145.223375 154.200875 145.223375 154.200875 145.223375 154.200875 
C 145.223375 154.200875 145.223375 154.200875 145.223375 154.200875 
C 145.223375 154.200875 145.223375 154.200875 145.223375 154.200875 
z
" style="fill: #ffffff"/>
   </g>
   <g id="patch_3">
    <path d="M 145.223375 154.200875 
C 145.223375 154.200875 145.223375 154.200875 145.223375 154.200875 
C 145.223375 154.200875 145.223375 154.200875 145.223375 154.200875 
L 152.383992 86.072157 
C 150.005308 85.822147 147.615162 85.696885 145.223375 85.696885 
C 142.831588 85.696885 140.441442 85.822147 138.062758 86.072157 
z
" clip-path="url(#pb4887b6ce3)" style="fill: #2a9d8f; stroke: #ffffff; stroke-width: 0.6; stroke-linejoin: miter"/>
   </g>
   <g id="patch_4">
    <path d="M 145.223375 154.200875 
C 145.223375 154.200875 145.223375 154.200875 145.223375 154.200875 
C 145.223375 154.200875 145.223375 154.200875 145.223375 154.200875 
L 172.71746 82.576335 
C 170.216721 81.616391 167.667423 80.788074 165.080041 80.094788 
C 162.49266 79.401501 159.870744 78.844195 157.225069 78.425162 
z
" clip-path="url(#pb4887b6ce3)" style="fill: #2a9d8f; stroke: #ffffff; stroke-width: 0.6; stroke-linejoin: miter"/>
   </g>
   <g id="patch_5">
    <path d="M 145.223375 154.200875 
C 145.223375 154.200875 145.223375 154.200875 145.223375 154.200875 
C 145.223375 154.200875 145.223375 154.200875 145.223375 154.200875 
L 187.521287 95.982794 
C 185.488628 94.505981 183.38002 93.136635 181.204128 91.880383 
C 179.028235 90.624131 176.788043 89.482696 174.492756 88.460768 
z
" clip-path="url(#pb4887b6ce3)" style="fill: #2a9d8f; stroke: #ffffff; stroke-width: 0.6; stroke-linejoin: miter"/>
   </g>
   <g id="patch_6">
    <path d="M 145.223375 154.200875 
C 145.223375 154.200875 145.223375 154.200875 145.223375 154.200875 
C 145.223375 154.200875 145.223375 154.200875 145.223375 154.200875 
L 196.916474 112.340629 
C 195.454942 110.535787 193.89989 108.808726 192.257707 107.166543 
C 190.615524 105.52436 188.888463 103.969308 187.083621 102.507776 
z
" clip-path="url(#pb4887b6ce3)" style="fill: #2a9d8f; stroke: #ffffff; stroke-width: 0.6; stroke-linejoin: miter"/>
   </g>
   <g id="patch_7">
    <path d="M 145.223375 154.200875 
C 145.223375 154.200875 145.223375 154.200875 145.223375 154.200875 
C 145.223375 154.200875 145.223375 154.200875 145.223375 154.200875 
L 215.350149 122.978424 
C 214.260031 120.529978 213.042431 118.140304 211.702352 115.81922 
C 210.362274 113.498136 208.901555 111.248826 207.326198 109.080533 
z
" clip-path="url(#pb4887b6ce3)" style="fill: #2a9d8f; stroke: #ffffff; stroke-width: 0.6; stroke-linejoin: miter"/>
   </g>
   <g id="patch_8">
    <path d="M 145.223375 154.200875 
C 145.223375 154.200875 145.223375 154.200875 145.223375 154.200875 
C 145.223375 154.200875 145.223375 154.200875 145.223375 154.200875 
L 216.036253 142.985217 
C 215.644664 140.512817 215.123858 138.06262 214.475978 135.644696 
C 213.828097 133.226772 213.054029 130.844437 212.156956 128.507481 
z
" clip-path="url(#pb4887b6ce3)" style="fill: #2a9d8f; stroke: #ffffff; stroke-width: 0.6; stroke-linejoin: miter"/>
   </g>
   <g id="patch_9">
    <path d="M 145.223375 154.200875 
C 145.223375 154.200875 145.223375 154.200875 145.223375 154.200875 
C 145.223375 154.200875 145.223375 154.200875 145.223375 154.200875 
L 234.738715 163.609316 
C 235.067207 160.483928 235.231791 157.343479 235.231791 154.200875 
C 235.231791 151.058271 235.067207 147.917822 234.738715 144.792434 
z
" clip-path="url(#pb4887b6ce3)" style="fill: #2a9d8f; stroke: #ffffff; stroke-width: 0.6; stroke-linejoin: miter"/>
   </g>
   <g id="patch_10">
    <path d="M 145.223375 154.200875 
C 145.223375 154.200875 145.223375 154.200875 145.223375 154.200875 
C 145.223375 154.200875 145.223375 154.200875 145.223375 154.200875 
L 248.738773 193.936713 
C 250.126132 190.322519 251.323258 186.638145 252.325231 182.898731 
C 253.327204 179.159317 254.132649 175.369992 254.738258 171.546328 
z
" clip-path="url(#pb4887b6ce3)" style="fill: #2a9d8f; stroke: #ffffff; stroke-width: 0.6; stroke-linejoin: miter"/>
   </g>
   <g id="patch_11">
    <path d="M 145.223375 154.200875 
C 145.223375 154.200875 145.223375 154.200875 145.223375 154.200875 
C 145.223375 154.200875 145.223375 154.200875 145.223375 154.200875 
L 212.755704 203.265984 
C 214.46879 200.908122 216.057216 198.46216 217.514455 195.938149 
C 218.971693 193.414138 220.295745 190.81554 221.48117 188.153033 
z
" clip-path="url(#pb4887b6ce3)" style="fill: #2a9d8f; stroke: #ffffff; stroke-width: 0.6; stroke-linejoin: miter"/>
   </g>
   <g id="patch_12">
    <path d="M 145.223375 154.200875 
C 145.223375 154.200875 145.223375 154.200875 145.223375 154.200875 
C 145.223375 154.200875 145.223375 154.200875 145.223375 154.200875 
L 196.145682 217.084688 
C 198.341243 215.306758 200.442184 213.415062 202.439873 211.417373 
C 204.437562 209.419684 206.329258 207.318743 208.107188 205.123182 
z
" clip-path="url(#pb4887b6ce3)" style="fill: #2a9d8f; stroke: #ffffff; stroke-width: 0.6; stroke-linejoin: miter"/>
   </g>
   <g id="patch_13">
    <path d="M 145.223375 154.200875 
C 145.223375 154.200875 145.223375 154.200875 145.223375 154.200875 
C 145.223375 154.200875 145.223375 154.200875 145.223375 154.200875 
L 184.341728 242.062134 
C 187.409365 240.696334 190.403368 239.170813 193.311436 237.491839 
C 196.219503 235.812866 199.037645 233.982743 201.754281 232.008992 
z
" clip-path="url(#pb4887b6ce3)" style="fill: #2a9d8f; stroke: #ffffff; stroke-width: 0.6; stroke-linejoin: miter"/>
   </g>
   <g id="patch_14">
    <path d="M 145.223375 154.200875 
C 145.223375 154.200875 145.223375 154.200875 145.223375 154.200875 
C 145.223375 154.200875 145.223375 154.200875 145.223375 154.200875 
L 159.563678 244.741985 
C 162.724881 244.241299 165.857694 243.575399 168.949243 242.747021 
C 172.040793 241.918643 175.086839 240.928923 178.074863 239.781928 
z
" clip-path="url(#pb4887b6ce3)" style="fill: #2a9d8f; stroke: #ffffff; stroke-width: 0.6; stroke-linejoin: miter"/>
   </g>
   <g id="patch_15">
    <path d="M 145.223375 154.200875 
C 145.223375 154.200875 145.223375 154.200875 145.223375 154.200875 
C 145.223375 154.200875 145.223375 154.200875 145.223375 154.200875 
L 136.375153 238.386084 
C 139.314442 238.695016 142.267895 238.8498 145.223375 238.8498 
C 148.178855 238.8498 151.132308 238.695016 154.071597 238.386084 
z
" clip-path="url(#pb4887b6ce3)" style="fill: #2a9d8f; stroke: #ffffff; stroke-width: 0.6; stroke-linejoin: miter"/>
   </g>
   <g id="patch_16">
    <path d="M 145.223375 154.200875 
C 145.223375 154.200875 145.223375 154.200875 145.223375 154.200875 
C 145.223375 154.200875 145.223375 154.200875 145.223375 154.200875 
L 121.851105 215.08772 
C 123.976942 215.903752 126.144059 216.607891 128.343549 217.197243 
C 130.543039 217.786594 132.771887 218.260351 135.020932 218.616564 
z
" clip-path="url(#pb4887b6ce3)" style="fill: #2a9d8f; stroke: #ffffff; stroke-width: 0.6; stroke-linejoin: miter"/>
   </g>
   <g id="patch_17">
    <path d="M 145.223375 154.200875 
C 145.223375 154.200875 145.223375 154.200875 145.223375 154.200875 
C 145.223375 154.200875 145.223375 154.200875 145.223375 154.200875 
L 101.160652 214.848011 
C 103.27812 216.386441 105.474706 217.812921 107.741384 219.121588 
C 110.008062 220.430255 112.341723 221.619315 114.732776 222.683881 
z
" clip-path="url(#pb4887b6ce3)" style="fill: #2a9d8f; stroke: #ffffff; stroke-width: 0.6; stroke-linejoin: miter"/>
   </g>
   <g id="patch_18">
    <path d="M 145.223375 154.200875 
C 145.223375 154.200875 145.223375 154.200875 145.223375 154.200875 
C 145.223375 154.200875 145.223375 154.200875 145.223375 154.200875 
L 81.458011 205.837049 
C 83.260865 208.063388 85.179081 210.193782 87.204774 212.219476 
C 89.230468 214.245169 91.360862 216.163385 93.587201 217.966239 
z
" clip-path="url(#pb4887b6ce3)" style="fill: #2a9d8f; stroke: #ffffff; stroke-width: 0.6; stroke-linejoin: miter"/>
   </g>
   <g id="patch_19">
    <path d="M 145.223375 154.200875 
C 145.223375 154.200875 145.223375 154.200875 145.223375 154.200875 
C 145.223375 154.200875 145.223375 154.200875 145.223375 154.200875 
L 101.876362 173.500209 
C 102.550189 175.013651 103.302817 176.490765 104.131151 177.925482 
C 104.959485 179.360199 105.86239 180.75055 106.836155 182.090823 
z
" clip-path="url(#pb4887b6ce3)" style="fill: #2a9d8f; stroke: #ffffff; stroke-width: 0.6; stroke-linejoin: miter"/>
   </g>
   <g id="patch_20">
    <path d="M 145.223375 154.200875 
C 145.223375 154.200875 145.223375 154.200875 145.223375 154.200875 
C 145.223375 154.200875 145.223375 154.200875 145.223375 154.200875 
L 88.108437 163.246992 
C 88.424278 165.241135 88.84434 167.217369 89.366896 169.167574 
C 89.889451 171.117778 90.513784 173.039277 91.237329 174.924176 
z
" clip-path="url(#pb4887b6ce3)" style="fill: #2a9d8f; stroke: #ffffff; stroke-width: 0.6; stroke-linejoin: miter"/>
   </g>
   <g id="patch_21">
    <path d="M 145.223375 154.200875 
C 145.223375 154.200875 145.223375 154.200875 145.223375 154.200875 
C 145.223375 154.200875 145.223375 154.200875 145.223375 154.200875 
L 111.843952 150.692556 
C 111.72146 151.857984 111.660089 153.029028 111.660089 154.200875 
C 111.660089 155.372722 111.72146 156.543766 111.843952 157.709194 
z
" clip-path="url(#pb4887b6ce3)" style="fill: #2a9d8f; stroke: #ffffff; stroke-width: 0.6; stroke-linejoin: miter"/>
   </g>
   <g id="patch_22">
    <path d="M 145.223375 154.200875 
C 145.223375 154.200875 145.223375 154.200875 145.223375 154.200875 
C 145.223375 154.200875 145.223375 154.200875 145.223375 154.200875 
L 106.551754 139.356231 
C 106.03346 140.706433 105.586234 142.082854 105.211914 143.479836 
C 104.837593 144.876819 104.536692 146.292447 104.310447 147.720904 
z
" clip-path="url(#pb4887b6ce3)" style="fill: #2a9d8f; stroke: #ffffff; stroke-width: 0.6; stroke-linejoin: miter"/>
   </g>
   <g id="patch_23">
    <path d="M 145.223375 154.200875 
C 145.223375 154.200875 145.223375 154.200875 145.223375 154.200875 
C 145.223375 154.200875 145.223375 154.200875 145.223375 154.200875 
L 118.839903 135.032161 
C 118.170636 135.953328 117.550071 136.908914 116.980758 137.894993 
C 116.411446 138.881071 115.894166 139.896289 115.431045 140.936475 
z
" clip-path="url(#pb4887b6ce3)" style="fill: #2a9d8f; stroke: #ffffff; stroke-width: 0.6; stroke-linejoin: miter"/>
   </g>
   <g id="patch_24">
    <path d="M 145.223375 154.200875 
C 145.223375 154.200875 145.223375 154.200875 145.223375 154.200875 
C 145.223375 154.200875 145.223375 154.200875 145.223375 154.200875 
L 108.960099 109.419458 
C 107.396575 110.685574 105.900433 112.032707 104.47782 113.45532 
C 103.055207 114.877933 101.708074 116.374075 100.441958 117.937599 
z
" clip-path="url(#pb4887b6ce3)" style="fill: #2a9d8f; stroke: #ffffff; stroke-width: 0.6; stroke-linejoin: miter"/>
   </g>
   <g id="patch_25">
    <path d="M 145.223375 154.200875 
C 145.223375 154.200875 145.223375 154.200875 145.223375 154.200875 
C 145.223375 154.200875 145.223375 154.200875 145.223375 154.200875 
L 127.511137 114.418537 
C 126.122154 115.036951 124.766511 115.727686 123.44978 116.487901 
C 122.133048 117.248117 120.857033 118.076771 119.626978 118.970457 
z
" clip-path="url(#pb4887b6ce3)" style="fill: #2a9d8f; stroke: #ffffff; stroke-width: 0.6; stroke-linejoin: miter"/>
   </g>
   <g id="patch_26">
    <path d="M 145.223375 154.200875 
C 145.223375 154.200875 145.223375 154.200875 145.223375 154.200875 
C 145.223375 154.200875 145.223375 154.200875 145.223375 154.200875 
L 134.366255 85.65172 
C 131.972892 86.030792 129.601023 86.534948 127.260394 87.162117 
C 124.919765 87.789287 122.613588 88.538609 120.351339 89.407006 
z
" clip-path="url(#pb4887b6ce3)" style="fill: #2a9d8f; stroke: #ffffff; stroke-width: 0.6; stroke-linejoin: miter"/>
   </g>
   <g id="matplotlib.axis_1">
    <g id="xtick_1">
     <g id="line2d_1">
      <path d="M 145.223375 154.200875 
L 145.223375 37.776875 
" clip-path="url(#pb4887b6ce3)" style="fill: none; stroke: #b0b0b0; stroke-width: 0.8; stroke-linecap: square"/>
     </g>
     <g id="text_1">
      <!-- 0° -->
      <g transform="translate(141.624 25.69875) scale(0.08 -0.08)">
       <defs>
        <path id="TimesNewRomanPSMT-30" d="M 231 2094 
Q 231 2819 450 3342 
Q 669 3866 1031 4122 
Q 1313 4325 1613 4325 
Q 2100 4325 2488 3828 
Q 2972 3213 2972 2159 
Q 2972 1422 2759 906 
Q 2547 391 2217 158 
Q 1888 -75 1581 -75 
Q 975 -75 572 641 
Q 231 1244 231 2094 
z
M 844 2016 
Q 844 1141 1059 588 
Q 1238 122 1591 122 
Q 1759 122 1940 273 
Q 2122 425 2216 781 
Q 2359 1319 2359 2297 
Q 2359 3022 2209 3506 
Q 2097 3866 1919 4016 
Q 1791 4119 1609 4119 
Q 1397 4119 1231 3928 
Q 1006 3669 925 3112 
Q 844 2556 844 2016 
z
" transform="scale(0.015625)"/>
        <path id="TimesNewRomanPSMT-b0" d="M 1266 4331 
Q 1669 4331 1948 4050 
Q 2228 3769 2228 3369 
Q 2228 2972 1947 2690 
Q 1666 2409 1266 2409 
Q 869 2409 587 2690 
Q 306 2972 306 3369 
Q 306 3769 586 4050 
Q 866 4331 1266 4331 
z
M 1266 4069 
Q 975 4069 772 3866 
Q 569 3663 569 3372 
Q 569 3084 772 2879 
Q 975 2675 1266 2675 
Q 1553 2675 1758 2879 
Q 1963 3084 1963 3372 
Q 1963 3663 1759 3866 
Q 1556 4069 1266 4069 
z
" transform="scale(0.015625)"/>
       </defs>
       <use xlink:href="#TimesNewRomanPSMT-30"/>
       <use xlink:href="#TimesNewRomanPSMT-b0" x="50"/>
      </g>
     </g>
    </g>
    <g id="xtick_2">
     <g id="line2d_2">
      <path d="M 145.223375 154.200875 
L 227.547575 71.876675 
" clip-path="url(#pb4887b6ce3)" style="fill: none; stroke: #b0b0b0; stroke-width: 0.8; stroke-linecap: square"/>
     </g>
     <g id="text_2">
      <!-- 45° -->
      <g transform="translate(231.847695 63.899055) scale(0.08 -0.08)">
       <defs>
        <path id="TimesNewRomanPSMT-34" d="M 2978 1563 
L 2978 1119 
L 2409 1119 
L 2409 0 
L 1894 0 
L 1894 1119 
L 100 1119 
L 100 1519 
L 2066 4325 
L 2409 4325 
L 2409 1563 
L 2978 1563 
z
M 1894 1563 
L 1894 3666 
L 406 1563 
L 1894 1563 
z
" transform="scale(0.015625)"/>
        <path id="TimesNewRomanPSMT-35" d="M 2778 4238 
L 2534 3706 
L 1259 3706 
L 981 3138 
Q 1809 3016 2294 2522 
Q 2709 2097 2709 1522 
Q 2709 1188 2573 903 
Q 2438 619 2231 419 
Q 2025 219 1772 97 
Q 1413 -75 1034 -75 
Q 653 -75 479 54 
Q 306 184 306 341 
Q 306 428 378 495 
Q 450 563 559 563 
Q 641 563 702 538 
Q 763 513 909 409 
Q 1144 247 1384 247 
Q 1750 247 2026 523 
Q 2303 800 2303 1197 
Q 2303 1581 2056 1914 
Q 1809 2247 1375 2428 
Q 1034 2569 447 2591 
L 1259 4238 
L 2778 4238 
z
" transform="scale(0.015625)"/>
       </defs>
       <use xlink:href="#TimesNewRomanPSMT-34"/>
       <use xlink:href="#TimesNewRomanPSMT-35" x="50"/>
       <use xlink:href="#TimesNewRomanPSMT-b0" x="100"/>
      </g>
     </g>
    </g>
    <g id="xtick_3">
     <g id="line2d_3">
      <path d="M 145.223375 154.200875 
L 261.647375 154.200875 
" clip-path="url(#pb4887b6ce3)" style="fill: none; stroke: #b0b0b0; stroke-width: 0.8; stroke-linecap: square"/>
     </g>
     <g id="text_3">
      <!-- 90° -->
      <g transform="translate(270.048 156.12275) scale(0.08 -0.08)">
       <defs>
        <path id="TimesNewRomanPSMT-39" d="M 338 -88 
L 338 28 
Q 744 34 1094 217 
Q 1444 400 1770 856 
Q 2097 1313 2225 1859 
Q 1734 1544 1338 1544 
Q 891 1544 572 1889 
Q 253 2234 253 2806 
Q 253 3363 572 3797 
Q 956 4325 1575 4325 
Q 2097 4325 2469 3894 
Q 2925 3359 2925 2575 
Q 2925 1869 2578 1258 
Q 2231 647 1613 244 
Q 1109 -88 516 -88 
L 338 -88 
z
M 2275 2091 
Q 2331 2497 2331 2741 
Q 2331 3044 2228 3395 
Q 2125 3747 1936 3934 
Q 1747 4122 1506 4122 
Q 1228 4122 1018 3872 
Q 809 3622 809 3128 
Q 809 2469 1088 2097 
Q 1291 1828 1588 1828 
Q 1731 1828 1928 1897 
Q 2125 1966 2275 2091 
z
" transform="scale(0.015625)"/>
       </defs>
       <use xlink:href="#TimesNewRomanPSMT-39"/>
       <use xlink:href="#TimesNewRomanPSMT-30" x="50"/>
       <use xlink:href="#TimesNewRomanPSMT-b0" x="100"/>
      </g>
     </g>
    </g>
    <g id="xtick_4">
     <g id="line2d_4">
      <path d="M 145.223375 154.200875 
L 227.547575 236.525075 
" clip-path="url(#pb4887b6ce3)" style="fill: none; stroke: #b0b0b0; stroke-width: 0.8; stroke-linecap: square"/>
     </g>
     <g id="text_4">
      <!-- 135° -->
      <g transform="translate(229.847695 248.346445) scale(0.08 -0.08)">
       <defs>
        <path id="TimesNewRomanPSMT-31" d="M 750 3822 
L 1781 4325 
L 1884 4325 
L 1884 747 
Q 1884 391 1914 303 
Q 1944 216 2037 169 
Q 2131 122 2419 116 
L 2419 0 
L 825 0 
L 825 116 
Q 1125 122 1212 167 
Q 1300 213 1334 289 
Q 1369 366 1369 747 
L 1369 3034 
Q 1369 3497 1338 3628 
Q 1316 3728 1258 3775 
Q 1200 3822 1119 3822 
Q 1003 3822 797 3725 
L 750 3822 
z
" transform="scale(0.015625)"/>
        <path id="TimesNewRomanPSMT-33" d="M 325 3431 
Q 506 3859 782 4092 
Q 1059 4325 1472 4325 
Q 1981 4325 2253 3994 
Q 2459 3747 2459 3466 
Q 2459 3003 1878 2509 
Q 2269 2356 2469 2072 
Q 2669 1788 2669 1403 
Q 2669 853 2319 450 
Q 1863 -75 997 -75 
Q 569 -75 414 31 
Q 259 138 259 259 
Q 259 350 332 419 
Q 406 488 509 488 
Q 588 488 669 463 
Q 722 447 909 348 
Q 1097 250 1169 231 
Q 1284 197 1416 197 
Q 1734 197 1970 444 
Q 2206 691 2206 1028 
Q 2206 1275 2097 1509 
Q 2016 1684 1919 1775 
Q 1784 1900 1550 2001 
Q 1316 2103 1072 2103 
L 972 2103 
L 972 2197 
Q 1219 2228 1467 2375 
Q 1716 2522 1828 2728 
Q 1941 2934 1941 3181 
Q 1941 3503 1739 3701 
Q 1538 3900 1238 3900 
Q 753 3900 428 3381 
L 325 3431 
z
" transform="scale(0.015625)"/>
       </defs>
       <use xlink:href="#TimesNewRomanPSMT-31"/>
       <use xlink:href="#TimesNewRomanPSMT-33" x="50"/>
       <use xlink:href="#TimesNewRomanPSMT-35" x="100"/>
       <use xlink:href="#TimesNewRomanPSMT-b0" x="150"/>
      </g>
     </g>
    </g>
    <g id="xtick_5">
     <g id="line2d_5">
      <path d="M 145.223375 154.200875 
L 145.223375 270.624875 
" clip-path="url(#pb4887b6ce3)" style="fill: none; stroke: #b0b0b0; stroke-width: 0.8; stroke-linecap: square"/>
     </g>
     <g id="text_5">
      <!-- 180° -->
      <g transform="translate(137.624 286.54675) scale(0.08 -0.08)">
       <defs>
        <path id="TimesNewRomanPSMT-38" d="M 1228 2134 
Q 725 2547 579 2797 
Q 434 3047 434 3316 
Q 434 3728 753 4026 
Q 1072 4325 1600 4325 
Q 2113 4325 2425 4047 
Q 2738 3769 2738 3413 
Q 2738 3175 2569 2928 
Q 2400 2681 1866 2347 
Q 2416 1922 2594 1678 
Q 2831 1359 2831 1006 
Q 2831 559 2490 242 
Q 2150 -75 1597 -75 
Q 994 -75 656 303 
Q 388 606 388 966 
Q 388 1247 577 1523 
Q 766 1800 1228 2134 
z
M 1719 2469 
Q 2094 2806 2194 3001 
Q 2294 3197 2294 3444 
Q 2294 3772 2109 3958 
Q 1925 4144 1606 4144 
Q 1288 4144 1088 3959 
Q 888 3775 888 3528 
Q 888 3366 970 3203 
Q 1053 3041 1206 2894 
L 1719 2469 
z
M 1375 2016 
Q 1116 1797 991 1539 
Q 866 1281 866 981 
Q 866 578 1086 336 
Q 1306 94 1647 94 
Q 1984 94 2187 284 
Q 2391 475 2391 747 
Q 2391 972 2272 1150 
Q 2050 1481 1375 2016 
z
" transform="scale(0.015625)"/>
       </defs>
       <use xlink:href="#TimesNewRomanPSMT-31"/>
       <use xlink:href="#TimesNewRomanPSMT-38" x="50"/>
       <use xlink:href="#TimesNewRomanPSMT-30" x="100"/>
       <use xlink:href="#TimesNewRomanPSMT-b0" x="150"/>
      </g>
     </g>
    </g>
    <g id="xtick_6">
     <g id="line2d_6">
      <path d="M 145.223375 154.200875 
L 62.899175 236.525075 
" clip-path="url(#pb4887b6ce3)" style="fill: none; stroke: #b0b0b0; stroke-width: 0.8; stroke-linecap: square"/>
     </g>
     <g id="text_6">
      <!-- 225° -->
      <g transform="translate(45.400305 248.346445) scale(0.08 -0.08)">
       <defs>
        <path id="TimesNewRomanPSMT-32" d="M 2934 816 
L 2638 0 
L 138 0 
L 138 116 
Q 1241 1122 1691 1759 
Q 2141 2397 2141 2925 
Q 2141 3328 1894 3587 
Q 1647 3847 1303 3847 
Q 991 3847 742 3664 
Q 494 3481 375 3128 
L 259 3128 
Q 338 3706 661 4015 
Q 984 4325 1469 4325 
Q 1984 4325 2329 3994 
Q 2675 3663 2675 3213 
Q 2675 2891 2525 2569 
Q 2294 2063 1775 1497 
Q 997 647 803 472 
L 1909 472 
Q 2247 472 2383 497 
Q 2519 522 2628 598 
Q 2738 675 2819 816 
L 2934 816 
z
" transform="scale(0.015625)"/>
       </defs>
       <use xlink:href="#TimesNewRomanPSMT-32"/>
       <use xlink:href="#TimesNewRomanPSMT-32" x="50"/>
       <use xlink:href="#TimesNewRomanPSMT-35" x="100"/>
       <use xlink:href="#TimesNewRomanPSMT-b0" x="150"/>
      </g>
     </g>
    </g>
    <g id="xtick_7">
     <g id="line2d_7">
      <path d="M 145.223375 154.200875 
L 28.799375 154.200875 
" clip-path="url(#pb4887b6ce3)" style="fill: none; stroke: #b0b0b0; stroke-width: 0.8; stroke-linecap: square"/>
     </g>
     <g id="text_7">
      <!-- 270° -->
      <g transform="translate(7.2 156.12275) scale(0.08 -0.08)">
       <defs>
        <path id="TimesNewRomanPSMT-37" d="M 644 4238 
L 2916 4238 
L 2916 4119 
L 1503 -88 
L 1153 -88 
L 2419 3728 
L 1253 3728 
Q 900 3728 750 3644 
Q 488 3500 328 3200 
L 238 3234 
L 644 4238 
z
" transform="scale(0.015625)"/>
       </defs>
       <use xlink:href="#TimesNewRomanPSMT-32"/>
       <use xlink:href="#TimesNewRomanPSMT-37" x="50"/>
       <use xlink:href="#TimesNewRomanPSMT-30" x="100"/>
       <use xlink:href="#TimesNewRomanPSMT-b0" x="150"/>
      </g>
     </g>
    </g>
    <g id="xtick_8">
     <g id="line2d_8">
      <path d="M 145.223375 154.200875 
L 62.899175 71.876675 
" clip-path="url(#pb4887b6ce3)" style="fill: none; stroke: #b0b0b0; stroke-width: 0.8; stroke-linecap: square"/>
     </g>
     <g id="text_8">
      <!-- 315° -->
      <g transform="translate(45.400305 63.899055) scale(0.08 -0.08)">
       <use xlink:href="#TimesNewRomanPSMT-33"/>
       <use xlink:href="#TimesNewRomanPSMT-31" x="50"/>
       <use xlink:href="#TimesNewRomanPSMT-35" x="100"/>
       <use xlink:href="#TimesNewRomanPSMT-b0" x="150"/>
      </g>
     </g>
    </g>
   </g>
   <g id="matplotlib.axis_2">
    <g id="ytick_1">
     <g id="line2d_9">
      <path d="M 145.223375 141.156169 
C 146.93639 141.156169 148.632748 141.493596 150.215368 142.149138 
C 151.797987 142.804681 153.23609 143.76559 154.447375 144.976875 
C 155.65866 146.18816 156.619569 147.626263 157.275112 149.208882 
C 157.930654 150.791502 158.268081 152.48786 158.268081 154.200875 
C 158.268081 155.91389 157.930654 157.610248 157.275112 159.192868 
C 156.619569 160.775487 155.65866 162.21359 154.447375 163.424875 
C 153.23609 164.63616 151.797987 165.597069 150.215368 166.252612 
C 148.632748 166.908154 146.93639 167.245581 145.223375 167.245581 
C 143.51036 167.245581 141.814002 166.908154 140.231382 166.252612 
C 138.648763 165.597069 137.21066 164.63616 135.999375 163.424875 
C 134.78809 162.21359 133.827181 160.775487 133.171638 159.192868 
C 132.516096 157.610248 132.178669 155.91389 132.178669 154.200875 
C 132.178669 152.48786 132.516096 150.791502 133.171638 149.208882 
C 133.827181 147.626263 134.78809 146.18816 135.999375 144.976875 
C 137.21066 143.76559 138.648763 142.804681 140.231382 142.149138 
C 141.814002 141.493596 143.51036 141.156169 145.223375 141.156169 
" clip-path="url(#pb4887b6ce3)" style="fill: none; stroke: #b0b0b0; stroke-width: 0.8; stroke-linecap: square"/>
     </g>
    </g>
    <g id="ytick_2">
     <g id="line2d_10">
      <path d="M 145.223375 128.111463 
C 148.649405 128.111463 152.042121 128.786316 155.207361 130.097401 
C 158.3726 131.408486 161.248806 133.330306 163.671375 135.752875 
C 166.093944 138.175444 168.015764 141.05165 169.326849 144.216889 
C 170.637934 147.382129 171.312787 150.774845 171.312787 154.200875 
C 171.312787 157.626905 170.637934 161.019621 169.326849 164.184861 
C 168.015764 167.3501 166.093944 170.226306 163.671375 172.648875 
C 161.248806 175.071444 158.3726 176.993264 155.207361 178.304349 
C 152.042121 179.615434 148.649405 180.290287 145.223375 180.290287 
C 141.797345 180.290287 138.404629 179.615434 135.239389 178.304349 
C 132.07415 176.993264 129.197944 175.071444 126.775375 172.648875 
C 124.352806 170.226306 122.430986 167.3501 121.119901 164.184861 
C 119.808816 161.019621 119.133963 157.626905 119.133963 154.200875 
C 119.133963 150.774845 119.808816 147.382129 121.119901 144.216889 
C 122.430986 141.05165 124.352806 138.175444 126.775375 135.752875 
C 129.197944 133.330306 132.07415 131.408486 135.239389 130.097401 
C 138.404629 128.786316 141.797345 128.111463 145.223375 128.111463 
" clip-path="url(#pb4887b6ce3)" style="fill: none; stroke: #b0b0b0; stroke-width: 0.8; stroke-linecap: square"/>
     </g>
    </g>
    <g id="ytick_3">
     <g id="line2d_11">
      <path d="M 145.223375 115.066757 
C 150.36242 115.066757 155.451495 116.079037 160.199353 118.045665 
C 164.947212 120.012292 169.261521 122.895021 172.895375 126.528875 
C 176.529229 130.162729 179.411958 134.477038 181.378585 139.224897 
C 183.345213 143.972755 184.357493 149.06183 184.357493 154.200875 
C 184.357493 159.33992 183.345213 164.428995 181.378585 169.176853 
C 179.411958 173.924712 176.529229 178.239021 172.895375 181.872875 
C 169.261521 185.506729 164.947212 188.389458 160.199353 190.356085 
C 155.451495 192.322713 150.36242 193.334993 145.223375 193.334993 
C 140.08433 193.334993 134.995255 192.322713 130.247397 190.356085 
C 125.499538 188.389458 121.185229 185.506729 117.551375 181.872875 
C 113.917521 178.239021 111.034792 173.924712 109.068165 169.176853 
C 107.101537 164.428995 106.089257 159.33992 106.089257 154.200875 
C 106.089257 149.06183 107.101537 143.972755 109.068165 139.224897 
C 111.034792 134.477038 113.917521 130.162729 117.551375 126.528875 
C 121.185229 122.895021 125.499538 120.012292 130.247397 118.045665 
C 134.995255 116.079037 140.08433 115.066757 145.223375 115.066757 
" clip-path="url(#pb4887b6ce3)" style="fill: none; stroke: #b0b0b0; stroke-width: 0.8; stroke-linecap: square"/>
     </g>
    </g>
    <g id="ytick_4">
     <g id="line2d_12">
      <path d="M 145.223375 102.022051 
C 152.075435 102.022051 158.860868 103.371758 165.191346 105.993928 
C 171.521825 108.616098 177.274237 112.459737 182.119375 117.304875 
C 186.964513 122.150013 190.808152 127.902425 193.430322 134.232904 
C 196.052492 140.563382 197.402199 147.348815 197.402199 154.200875 
C 197.402199 161.052935 196.052492 167.838368 193.430322 174.168846 
C 190.808152 180.499325 186.964513 186.251737 182.119375 191.096875 
C 177.274237 195.942013 171.521825 199.785652 165.191346 202.407822 
C 158.860868 205.029992 152.075435 206.379699 145.223375 206.379699 
C 138.371315 206.379699 131.585882 205.029992 125.255404 202.407822 
C 118.924925 199.785652 113.172513 195.942013 108.327375 191.096875 
C 103.482237 186.251737 99.638598 180.499325 97.016428 174.168846 
C 94.394258 167.838368 93.044551 161.052935 93.044551 154.200875 
C 93.044551 147.348815 94.394258 140.563382 97.016428 134.232904 
C 99.638598 127.902425 103.482237 122.150013 108.327375 117.304875 
C 113.172513 112.459737 118.924925 108.616098 125.255404 105.993928 
C 131.585882 103.371758 138.371315 102.022051 145.223375 102.022051 
" clip-path="url(#pb4887b6ce3)" style="fill: none; stroke: #b0b0b0; stroke-width: 0.8; stroke-linecap: square"/>
     </g>
    </g>
    <g id="ytick_5">
     <g id="line2d_13">
      <path d="M 145.223375 88.977346 
C 153.78845 88.977346 162.270241 90.664479 170.183339 93.942191 
C 178.096437 97.219904 185.286952 102.024452 191.343375 108.080875 
C 197.399798 114.137298 202.204346 121.327813 205.482059 129.240911 
C 208.759771 137.154009 210.446904 145.6358 210.446904 154.200875 
C 210.446904 162.76595 208.759771 171.247741 205.482059 179.160839 
C 202.204346 187.073937 197.399798 194.264452 191.343375 200.320875 
C 185.286952 206.377298 178.096437 211.181846 170.183339 214.459559 
C 162.270241 217.737271 153.78845 219.424404 145.223375 219.424404 
C 136.6583 219.424404 128.176509 217.737271 120.263411 214.459559 
C 112.350313 211.181846 105.159798 206.377298 99.103375 200.320875 
C 93.046952 194.264452 88.242404 187.073937 84.964691 179.160839 
C 81.686979 171.247741 79.999846 162.76595 79.999846 154.200875 
C 79.999846 145.6358 81.686979 137.154009 84.964691 129.240911 
C 88.242404 121.327813 93.046952 114.137298 99.103375 108.080875 
C 105.159798 102.024452 112.350313 97.219904 120.263411 93.942191 
C 128.176509 90.664479 136.6583 88.977346 145.223375 88.977346 
" clip-path="url(#pb4887b6ce3)" style="fill: none; stroke: #b0b0b0; stroke-width: 0.8; stroke-linecap: square"/>
     </g>
    </g>
    <g id="ytick_6">
     <g id="line2d_14">
      <path d="M 145.223375 75.93264 
C 155.501465 75.93264 165.679614 77.957199 175.175332 81.890454 
C 184.671049 85.823709 193.299667 91.589168 200.567375 98.856875 
C 207.835082 106.124583 213.600541 114.753201 217.533796 124.248918 
C 221.467051 133.744636 223.49161 143.922785 223.49161 154.200875 
C 223.49161 164.478965 221.467051 174.657114 217.533796 184.152832 
C 213.600541 193.648549 207.835082 202.277167 200.567375 209.544875 
C 193.299667 216.812582 184.671049 222.578041 175.175332 226.511296 
C 165.679614 230.444551 155.501465 232.46911 145.223375 232.46911 
C 134.945285 232.46911 124.767136 230.444551 115.271418 226.511296 
C 105.775701 222.578041 97.147083 216.812582 89.879375 209.544875 
C 82.611668 202.277167 76.846209 193.648549 72.912954 184.152832 
C 68.979699 174.657114 66.95514 164.478965 66.95514 154.200875 
C 66.95514 143.922785 68.979699 133.744636 72.912954 124.248918 
C 76.846209 114.753201 82.611668 106.124583 89.879375 98.856875 
C 97.147083 91.589168 105.775701 85.823709 115.271418 81.890454 
C 124.767136 77.957199 134.945285 75.93264 145.223375 75.93264 
" clip-path="url(#pb4887b6ce3)" style="fill: none; stroke: #b0b0b0; stroke-width: 0.8; stroke-linecap: square"/>
     </g>
    </g>
    <g id="ytick_7">
     <g id="line2d_15">
      <path d="M 145.223375 62.887934 
C 157.214481 62.887934 169.088988 65.24992 180.167325 69.838718 
C 191.245662 74.427515 201.312383 81.153883 209.791375 89.632875 
C 218.270367 98.111867 224.996735 108.178588 229.585532 119.256925 
C 234.17433 130.335262 236.536316 142.209769 236.536316 154.200875 
C 236.536316 166.191981 234.17433 178.066488 229.585532 189.144825 
C 224.996735 200.223162 218.270367 210.289883 209.791375 218.768875 
C 201.312383 227.247867 191.245662 233.974235 180.167325 238.563032 
C 169.088988 243.15183 157.214481 245.513816 145.223375 245.513816 
C 133.232269 245.513816 121.357762 243.15183 110.279425 238.563032 
C 99.201088 233.974235 89.134367 227.247867 80.655375 218.768875 
C 72.176383 210.289883 65.450015 200.223162 60.861218 189.144825 
C 56.27242 178.066488 53.910434 166.191981 53.910434 154.200875 
C 53.910434 142.209769 56.27242 130.335262 60.861218 119.256925 
C 65.450015 108.178588 72.176383 98.111867 80.655375 89.632875 
C 89.134367 81.153883 99.201088 74.427515 110.279425 69.838718 
C 121.357762 65.24992 133.232269 62.887934 145.223375 62.887934 
" clip-path="url(#pb4887b6ce3)" style="fill: none; stroke: #b0b0b0; stroke-width: 0.8; stroke-linecap: square"/>
     </g>
    </g>
    <g id="ytick_8">
     <g id="line2d_16">
      <path d="M 145.223375 49.843228 
C 158.927496 49.843228 172.498361 52.542641 185.159318 57.786981 
C 197.820274 63.031321 209.325098 70.718598 219.015375 80.408875 
C 228.705652 90.099152 236.392929 101.603976 241.637269 114.264932 
C 246.881609 126.925889 249.581022 140.496754 249.581022 154.200875 
C 249.581022 167.904996 246.881609 181.475861 241.637269 194.136818 
C 236.392929 206.797774 228.705652 218.302598 219.015375 227.992875 
C 209.325098 237.683152 197.820274 245.370429 185.159318 250.614769 
C 172.498361 255.859109 158.927496 258.558522 145.223375 258.558522 
C 131.519254 258.558522 117.948389 255.859109 105.287432 250.614769 
C 92.626476 245.370429 81.121652 237.683152 71.431375 227.992875 
C 61.741098 218.302598 54.053821 206.797774 48.809481 194.136818 
C 43.565141 181.475861 40.865728 167.904996 40.865728 154.200875 
C 40.865728 140.496754 43.565141 126.925889 48.809481 114.264932 
C 54.053821 101.603976 61.741098 90.099152 71.431375 80.408875 
C 81.121652 70.718598 92.626476 63.031321 105.287432 57.786981 
C 117.948389 52.542641 131.519254 49.843228 145.223375 49.843228 
" clip-path="url(#pb4887b6ce3)" style="fill: none; stroke: #b0b0b0; stroke-width: 0.8; stroke-linecap: square"/>
     </g>
    </g>
   </g>
   <g id="patch_27">
    <path d="M 145.223375 37.776875 
C 129.934715 37.776875 114.794719 40.788408 100.669839 46.639124 
C 86.544959 52.489841 73.70989 61.06596 62.899175 71.876675 
C 52.08846 82.68739 43.512341 95.522459 37.661624 109.647339 
C 31.810908 123.772219 28.799375 138.912215 28.799375 154.200875 
C 28.799375 169.489535 31.810908 184.629531 37.661624 198.754411 
C 43.512341 212.879291 52.08846 225.71436 62.899175 236.525075 
C 73.70989 247.33579 86.544959 255.911909 100.669839 261.762626 
C 114.794719 267.613342 129.934715 270.624875 145.223375 270.624875 
C 160.512035 270.624875 175.652031 267.613342 189.776911 261.762626 
C 203.901791 255.911909 216.73686 247.33579 227.547575 236.525075 
C 238.35829 225.71436 246.934409 212.879291 252.785126 198.754411 
C 258.635842 184.629531 261.647375 169.489535 261.647375 154.200875 
C 261.647375 138.912215 258.635842 123.772219 252.785126 109.647339 
C 246.934409 95.522459 238.35829 82.68739 227.547575 71.876675 
C 216.73686 61.06596 203.901791 52.489841 189.776911 46.639124 
C 175.652031 40.788408 160.512035 37.776875 145.223375 37.776875 
" style="fill: none; stroke: #000000; stroke-width: 0.8; stroke-linejoin: miter; stroke-linecap: square"/>
   </g>
   <g id="text_9">
    <!-- Wind direction exposure -->
    <g transform="translate(95.993688 14.14375) scale(0.1 -0.1)">
     <defs>
      <path id="TimesNewRomanPSMT-57" d="M 5991 4238 
L 5991 4122 
Q 5825 4122 5722 4062 
Q 5619 4003 5525 3841 
Q 5463 3731 5328 3319 
L 4147 -97 
L 4022 -97 
L 3056 2613 
L 2097 -97 
L 1984 -97 
L 725 3422 
Q 584 3816 547 3888 
Q 484 4006 376 4064 
Q 269 4122 84 4122 
L 84 4238 
L 1653 4238 
L 1653 4122 
L 1578 4122 
Q 1413 4122 1325 4047 
Q 1238 3972 1238 3866 
Q 1238 3756 1375 3363 
L 2209 984 
L 2913 3006 
L 2788 3363 
L 2688 3647 
Q 2622 3803 2541 3922 
Q 2500 3981 2441 4022 
Q 2363 4078 2284 4103 
Q 2225 4122 2097 4122 
L 2097 4238 
L 3747 4238 
L 3747 4122 
L 3634 4122 
Q 3459 4122 3378 4047 
Q 3297 3972 3297 3844 
Q 3297 3684 3438 3288 
L 4250 984 
L 5056 3319 
Q 5194 3706 5194 3856 
Q 5194 3928 5148 3990 
Q 5103 4053 5034 4078 
Q 4916 4122 4725 4122 
L 4725 4238 
L 5991 4238 
z
" transform="scale(0.015625)"/>
      <path id="TimesNewRomanPSMT-69" d="M 928 4444 
Q 1059 4444 1151 4351 
Q 1244 4259 1244 4128 
Q 1244 3997 1151 3903 
Q 1059 3809 928 3809 
Q 797 3809 703 3903 
Q 609 3997 609 4128 
Q 609 4259 701 4351 
Q 794 4444 928 4444 
z
M 1188 2947 
L 1188 647 
Q 1188 378 1227 289 
Q 1266 200 1342 156 
Q 1419 113 1622 113 
L 1622 0 
L 231 0 
L 231 113 
Q 441 113 512 153 
Q 584 194 626 287 
Q 669 381 669 647 
L 669 1750 
Q 669 2216 641 2353 
Q 619 2453 572 2492 
Q 525 2531 444 2531 
Q 356 2531 231 2484 
L 188 2597 
L 1050 2947 
L 1188 2947 
z
" transform="scale(0.015625)"/>
      <path id="TimesNewRomanPSMT-6e" d="M 1034 2341 
Q 1538 2947 1994 2947 
Q 2228 2947 2397 2830 
Q 2566 2713 2666 2444 
Q 2734 2256 2734 1869 
L 2734 647 
Q 2734 375 2778 278 
Q 2813 200 2889 156 
Q 2966 113 3172 113 
L 3172 0 
L 1756 0 
L 1756 113 
L 1816 113 
Q 2016 113 2095 173 
Q 2175 234 2206 353 
Q 2219 400 2219 647 
L 2219 1819 
Q 2219 2209 2117 2386 
Q 2016 2563 1775 2563 
Q 1403 2563 1034 2156 
L 1034 647 
Q 1034 356 1069 288 
Q 1113 197 1189 155 
Q 1266 113 1500 113 
L 1500 0 
L 84 0 
L 84 113 
L 147 113 
Q 366 113 442 223 
Q 519 334 519 647 
L 519 1709 
Q 519 2225 495 2337 
Q 472 2450 423 2490 
Q 375 2531 294 2531 
Q 206 2531 84 2484 
L 38 2597 
L 900 2947 
L 1034 2947 
L 1034 2341 
z
" transform="scale(0.015625)"/>
      <path id="TimesNewRomanPSMT-64" d="M 2222 322 
Q 2013 103 1813 7 
Q 1613 -88 1381 -88 
Q 913 -88 563 304 
Q 213 697 213 1313 
Q 213 1928 600 2439 
Q 988 2950 1597 2950 
Q 1975 2950 2222 2709 
L 2222 3238 
Q 2222 3728 2198 3840 
Q 2175 3953 2125 3993 
Q 2075 4034 2000 4034 
Q 1919 4034 1784 3984 
L 1744 4094 
L 2597 4444 
L 2738 4444 
L 2738 1134 
Q 2738 631 2761 520 
Q 2784 409 2836 365 
Q 2888 322 2956 322 
Q 3041 322 3181 375 
L 3216 266 
L 2366 -88 
L 2222 -88 
L 2222 322 
z
M 2222 541 
L 2222 2016 
Q 2203 2228 2109 2403 
Q 2016 2578 1861 2667 
Q 1706 2756 1559 2756 
Q 1284 2756 1069 2509 
Q 784 2184 784 1559 
Q 784 928 1059 592 
Q 1334 256 1672 256 
Q 1956 256 2222 541 
z
" transform="scale(0.015625)"/>
      <path id="TimesNewRomanPSMT-20" transform="scale(0.015625)"/>
      <path id="TimesNewRomanPSMT-72" d="M 1038 2947 
L 1038 2303 
Q 1397 2947 1775 2947 
Q 1947 2947 2059 2842 
Q 2172 2738 2172 2600 
Q 2172 2478 2090 2393 
Q 2009 2309 1897 2309 
Q 1788 2309 1652 2417 
Q 1516 2525 1450 2525 
Q 1394 2525 1328 2463 
Q 1188 2334 1038 2041 
L 1038 669 
Q 1038 431 1097 309 
Q 1138 225 1241 169 
Q 1344 113 1538 113 
L 1538 0 
L 72 0 
L 72 113 
Q 291 113 397 181 
Q 475 231 506 341 
Q 522 394 522 644 
L 522 1753 
Q 522 2253 501 2348 
Q 481 2444 426 2487 
Q 372 2531 291 2531 
Q 194 2531 72 2484 
L 41 2597 
L 906 2947 
L 1038 2947 
z
" transform="scale(0.015625)"/>
      <path id="TimesNewRomanPSMT-65" d="M 681 1784 
Q 678 1147 991 784 
Q 1303 422 1725 422 
Q 2006 422 2214 576 
Q 2422 731 2563 1106 
L 2659 1044 
Q 2594 616 2278 264 
Q 1963 -88 1488 -88 
Q 972 -88 605 314 
Q 238 716 238 1394 
Q 238 2128 614 2539 
Q 991 2950 1559 2950 
Q 2041 2950 2350 2633 
Q 2659 2316 2659 1784 
L 681 1784 
z
M 681 1966 
L 2006 1966 
Q 1991 2241 1941 2353 
Q 1863 2528 1708 2628 
Q 1553 2728 1384 2728 
Q 1125 2728 920 2526 
Q 716 2325 681 1966 
z
" transform="scale(0.015625)"/>
      <path id="TimesNewRomanPSMT-63" d="M 2631 1088 
Q 2516 522 2178 217 
Q 1841 -88 1431 -88 
Q 944 -88 581 321 
Q 219 731 219 1428 
Q 219 2103 620 2525 
Q 1022 2947 1584 2947 
Q 2006 2947 2278 2723 
Q 2550 2500 2550 2259 
Q 2550 2141 2473 2067 
Q 2397 1994 2259 1994 
Q 2075 1994 1981 2113 
Q 1928 2178 1911 2362 
Q 1894 2547 1784 2644 
Q 1675 2738 1481 2738 
Q 1169 2738 978 2506 
Q 725 2200 725 1697 
Q 725 1184 976 792 
Q 1228 400 1656 400 
Q 1963 400 2206 609 
Q 2378 753 2541 1131 
L 2631 1088 
z
" transform="scale(0.015625)"/>
      <path id="TimesNewRomanPSMT-74" d="M 1031 3803 
L 1031 2863 
L 1700 2863 
L 1700 2644 
L 1031 2644 
L 1031 788 
Q 1031 509 1111 412 
Q 1191 316 1316 316 
Q 1419 316 1516 380 
Q 1613 444 1666 569 
L 1788 569 
Q 1678 263 1478 108 
Q 1278 -47 1066 -47 
Q 922 -47 784 33 
Q 647 113 581 261 
Q 516 409 516 719 
L 516 2644 
L 63 2644 
L 63 2747 
Q 234 2816 414 2980 
Q 594 3144 734 3369 
Q 806 3488 934 3803 
L 1031 3803 
z
" transform="scale(0.015625)"/>
      <path id="TimesNewRomanPSMT-6f" d="M 1600 2947 
Q 2250 2947 2644 2453 
Q 2978 2031 2978 1484 
Q 2978 1100 2793 706 
Q 2609 313 2286 112 
Q 1963 -88 1566 -88 
Q 919 -88 538 428 
Q 216 863 216 1403 
Q 216 1797 411 2186 
Q 606 2575 925 2761 
Q 1244 2947 1600 2947 
z
M 1503 2744 
Q 1338 2744 1170 2645 
Q 1003 2547 900 2300 
Q 797 2053 797 1666 
Q 797 1041 1045 587 
Q 1294 134 1700 134 
Q 2003 134 2200 384 
Q 2397 634 2397 1244 
Q 2397 2006 2069 2444 
Q 1847 2744 1503 2744 
z
" transform="scale(0.015625)"/>
      <path id="TimesNewRomanPSMT-78" d="M 84 2863 
L 1431 2863 
L 1431 2747 
Q 1303 2747 1251 2703 
Q 1200 2659 1200 2588 
Q 1200 2513 1309 2356 
Q 1344 2306 1413 2200 
L 1616 1875 
L 1850 2200 
Q 2075 2509 2075 2591 
Q 2075 2656 2022 2701 
Q 1969 2747 1850 2747 
L 1850 2863 
L 2819 2863 
L 2819 2747 
Q 2666 2738 2553 2663 
Q 2400 2556 2134 2200 
L 1744 1678 
L 2456 653 
Q 2719 275 2831 198 
Q 2944 122 3122 113 
L 3122 0 
L 1772 0 
L 1772 113 
Q 1913 113 1991 175 
Q 2050 219 2050 291 
Q 2050 363 1850 653 
L 1431 1266 
L 972 653 
Q 759 369 759 316 
Q 759 241 829 180 
Q 900 119 1041 113 
L 1041 0 
L 106 0 
L 106 113 
Q 219 128 303 191 
Q 422 281 703 653 
L 1303 1450 
L 759 2238 
Q 528 2575 401 2661 
Q 275 2747 84 2747 
L 84 2863 
z
" transform="scale(0.015625)"/>
      <path id="TimesNewRomanPSMT-70" d="M -6 2578 
L 875 2934 
L 994 2934 
L 994 2266 
Q 1216 2644 1439 2795 
Q 1663 2947 1909 2947 
Q 2341 2947 2628 2609 
Q 2981 2197 2981 1534 
Q 2981 794 2556 309 
Q 2206 -88 1675 -88 
Q 1444 -88 1275 -22 
Q 1150 25 994 166 
L 994 -706 
Q 994 -1000 1030 -1079 
Q 1066 -1159 1155 -1206 
Q 1244 -1253 1478 -1253 
L 1478 -1369 
L -22 -1369 
L -22 -1253 
L 56 -1253 
Q 228 -1256 350 -1188 
Q 409 -1153 442 -1076 
Q 475 -1000 475 -688 
L 475 2019 
Q 475 2297 450 2372 
Q 425 2447 370 2484 
Q 316 2522 222 2522 
Q 147 2522 31 2478 
L -6 2578 
z
M 994 2081 
L 994 1013 
Q 994 666 1022 556 
Q 1066 375 1236 237 
Q 1406 100 1666 100 
Q 1978 100 2172 344 
Q 2425 663 2425 1241 
Q 2425 1897 2138 2250 
Q 1938 2494 1663 2494 
Q 1513 2494 1366 2419 
Q 1253 2363 994 2081 
z
" transform="scale(0.015625)"/>
      <path id="TimesNewRomanPSMT-73" d="M 2050 2947 
L 2050 1972 
L 1947 1972 
Q 1828 2431 1642 2597 
Q 1456 2763 1169 2763 
Q 950 2763 815 2647 
Q 681 2531 681 2391 
Q 681 2216 781 2091 
Q 878 1963 1175 1819 
L 1631 1597 
Q 2266 1288 2266 781 
Q 2266 391 1970 151 
Q 1675 -88 1309 -88 
Q 1047 -88 709 6 
Q 606 38 541 38 
Q 469 38 428 -44 
L 325 -44 
L 325 978 
L 428 978 
Q 516 541 762 319 
Q 1009 97 1316 97 
Q 1531 97 1667 223 
Q 1803 350 1803 528 
Q 1803 744 1651 891 
Q 1500 1038 1047 1263 
Q 594 1488 453 1669 
Q 313 1847 313 2119 
Q 313 2472 555 2709 
Q 797 2947 1181 2947 
Q 1350 2947 1591 2875 
Q 1750 2828 1803 2828 
Q 1853 2828 1881 2850 
Q 1909 2872 1947 2947 
L 2050 2947 
z
" transform="scale(0.015625)"/>
      <path id="TimesNewRomanPSMT-75" d="M 2709 2863 
L 2709 1128 
Q 2709 631 2732 520 
Q 2756 409 2807 365 
Q 2859 322 2928 322 
Q 3025 322 3147 375 
L 3191 266 
L 2334 -88 
L 2194 -88 
L 2194 519 
Q 1825 119 1631 15 
Q 1438 -88 1222 -88 
Q 981 -88 804 51 
Q 628 191 559 409 
Q 491 628 491 1028 
L 491 2306 
Q 491 2509 447 2587 
Q 403 2666 317 2708 
Q 231 2750 6 2747 
L 6 2863 
L 1009 2863 
L 1009 947 
Q 1009 547 1148 422 
Q 1288 297 1484 297 
Q 1619 297 1789 381 
Q 1959 466 2194 703 
L 2194 2325 
Q 2194 2569 2105 2655 
Q 2016 2741 1734 2747 
L 1734 2863 
L 2709 2863 
z
" transform="scale(0.015625)"/>
     </defs>
     <use xlink:href="#TimesNewRomanPSMT-57"/>
     <use xlink:href="#TimesNewRomanPSMT-69" x="90.384766"/>
     <use xlink:href="#TimesNewRomanPSMT-6e" x="118.167969"/>
     <use xlink:href="#TimesNewRomanPSMT-64" x="168.167969"/>
     <use xlink:href="#TimesNewRomanPSMT-20" x="218.167969"/>
     <use xlink:href="#TimesNewRomanPSMT-64" x="243.167969"/>
     <use xlink:href="#TimesNewRomanPSMT-69" x="293.167969"/>
     <use xlink:href="#TimesNewRomanPSMT-72" x="320.951172"/>
     <use xlink:href="#TimesNewRomanPSMT-65" x="354.251953"/>
     <use xlink:href="#TimesNewRomanPSMT-63" x="398.636719"/>
     <use xlink:href="#TimesNewRomanPSMT-74" x="443.021484"/>
     <use xlink:href="#TimesNewRomanPSMT-69" x="470.804688"/>
     <use xlink:href="#TimesNewRomanPSMT-6f" x="498.587891"/>
     <use xlink:href="#TimesNewRomanPSMT-6e" x="548.587891"/>
     <use xlink:href="#TimesNewRomanPSMT-20" x="598.587891"/>
     <use xlink:href="#TimesNewRomanPSMT-65" x="623.587891"/>
     <use xlink:href="#TimesNewRomanPSMT-78" x="667.972656"/>
     <use xlink:href="#TimesNewRomanPSMT-70" x="717.972656"/>
     <use xlink:href="#TimesNewRomanPSMT-6f" x="767.972656"/>
     <use xlink:href="#TimesNewRomanPSMT-73" x="817.972656"/>
     <use xlink:href="#TimesNewRomanPSMT-75" x="856.888672"/>
     <use xlink:href="#TimesNewRomanPSMT-72" x="906.888672"/>
     <use xlink:href="#TimesNewRomanPSMT-65" x="940.189453"/>
    </g>
   </g>
  </g>
 </g>
 <defs>
  <clipPath id="pb4887b6ce3">
   <path d="M 261.647375 154.200875 
C 261.647375 138.912215 258.635842 123.772219 252.785126 109.647339 
C 246.934409 95.522459 238.35829 82.68739 227.547575 71.876675 
C 216.73686 61.06596 203.901791 52.489841 189.776911 46.639124 
C 175.652031 40.788408 160.512035 37.776875 145.223375 37.776875 
C 129.934715 37.776875 114.794719 40.788408 100.669839 46.639124 
C 86.544959 52.489841 73.70989 61.06596 62.899175 71.876675 
C 52.08846 82.68739 43.512341 95.522459 37.661624 109.647339 
C 31.810908 123.772219 28.799375 138.912215 28.799375 154.200875 
C 28.799375 169.489535 31.810908 184.629531 37.661624 198.754411 
C 43.512341 212.879291 52.08846 225.71436 62.899175 236.525075 
C 73.70989 247.33579 86.544959 255.911909 100.669839 261.762626 
C 114.794719 267.613342 129.934715 270.624875 145.223375 270.624875 
C 160.512035 270.624875 175.652031 267.613342 189.776911 261.762626 
C 203.901791 255.911909 216.73686 247.33579 227.547575 236.525075 
C 238.35829 225.71436 246.934409 212.879291 252.785126 198.754411 
C 258.635842 184.629531 261.647375 169.489535 261.647375 154.200875 
M 145.223375 154.200875 
C 145.223375 154.200875 145.223375 154.200875 145.223375 154.200875 
C 145.223375 154.200875 145.223375 154.200875 145.223375 154.200875 
C 145.223375 154.200875 145.223375 154.200875 145.223375 154.200875 
C 145.223375 154.200875 145.223375 154.200875 145.223375 154.200875 
C 145.223375 154.200875 145.223375 154.200875 145.223375 154.200875 
C 145.223375 154.200875 145.223375 154.200875 145.223375 154.200875 
C 145.223375 154.200875 145.223375 154.200875 145.223375 154.200875 
C 145.223375 154.200875 145.223375 154.200875 145.223375 154.200875 
C 145.223375 154.200875 145.223375 154.200875 145.223375 154.200875 
C 145.223375 154.200875 145.223375 154.200875 145.223375 154.200875 
C 145.223375 154.200875 145.223375 154.200875 145.223375 154.200875 
C 145.223375 154.200875 145.223375 154.200875 145.223375 154.200875 
C 145.223375 154.200875 145.223375 154.200875 145.223375 154.200875 
C 145.223375 154.200875 145.223375 154.200875 145.223375 154.200875 
C 145.223375 154.200875 145.223375 154.200875 145.223375 154.200875 
C 145.223375 154.200875 145.223375 154.200875 145.223375 154.200875 
z
"/>
  </clipPath>
 </defs>
</svg>
